<svg width="30" height="30" viewBox="0 0 30 30" fill="none" xmlns="http://www.w3.org/2000/svg">
<path d="M3.75 7.5C3.05964 7.5 2.5 8.05964 2.5 8.75C2.5 9.44036 3.05964 10 3.75 10V7.5ZM3.75 20C3.05964 20 2.5 20.5596 2.5 21.25C2.5 21.9404 3.05964 22.5 3.75 22.5V20ZM11.25 22.5C11.9404 22.5 12.5 21.9404 12.5 21.25C12.5 20.5596 11.9404 20 11.25 20V22.5ZM26.25 22.5C26.9404 22.5 27.5 21.9404 27.5 21.25C27.5 20.5596 26.9404 20 26.25 20V22.5ZM18.75 7.5C18.0596 7.5 17.5 8.05964 17.5 8.75C17.5 9.44036 18.0596 10 18.75 10V7.5ZM26.25 10C26.9404 10 27.5 9.44036 27.5 8.75C27.5 8.05964 26.9404 7.5 26.25 7.5V10ZM3.75 10H7.5V7.5H3.75V10ZM3.75 22.5H11.25V20H3.75V22.5ZM22.5 22.5H26.25V20H22.5V22.5ZM18.75 10H26.25V7.5H18.75V10ZM21.25 21.25C21.25 22.6307 20.1307 23.75 18.75 23.75V26.25C21.5114 26.25 23.75 24.0114 23.75 21.25H21.25ZM18.75 23.75C17.3693 23.75 16.25 22.6307 16.25 21.25H13.75C13.75 24.0114 15.9886 26.25 18.75 26.25V23.75ZM16.25 21.25C16.25 19.8693 17.3693 18.75 18.75 18.75V16.25C15.9886 16.25 13.75 18.4886 13.75 21.25H16.25ZM18.75 18.75C20.1307 18.75 21.25 19.8693 21.25 21.25H23.75C23.75 18.4886 21.5114 16.25 18.75 16.25V18.75ZM13.75 8.75C13.75 10.1307 12.6307 11.25 11.25 11.25V13.75C14.0114 13.75 16.25 11.5114 16.25 8.75H13.75ZM11.25 11.25C9.86929 11.25 8.75 10.1307 8.75 8.75H6.25C6.25 11.5114 8.48858 13.75 11.25 13.75V11.25ZM8.75 8.75C8.75 7.36929 9.86929 6.25 11.25 6.25V3.75C8.48858 3.75 6.25 5.98858 6.25 8.75H8.75ZM11.25 6.25C12.6307 6.25 13.75 7.36929 13.75 8.75H16.25C16.25 5.98858 14.0114 3.75 11.25 3.75V6.25Z" fill="url(#paint0_linear_525_3886)"/>
<defs>
<linearGradient id="paint0_linear_525_3886" x1="15" y1="5" x2="15" y2="25" gradientUnits="userSpaceOnUse">
<stop stop-color="#FFF400"/>
<stop offset="1" stop-color="#FF7400"/>
</linearGradient>
</defs>
</svg>
