<svg width="30" height="30" viewBox="0 0 30 30" fill="none" xmlns="http://www.w3.org/2000/svg">
<path d="M11.3875 10.1313L14.25 7.25627V19.2438C14.25 19.5753 14.3817 19.8932 14.6161 20.1276C14.8505 20.3621 15.1685 20.4938 15.5 20.4938C15.8315 20.4938 16.1495 20.3621 16.3839 20.1276C16.6183 19.8932 16.75 19.5753 16.75 19.2438V7.25627L19.6125 10.1313C19.7287 10.2484 19.867 10.3414 20.0193 10.4049C20.1716 10.4683 20.335 10.501 20.5 10.501C20.665 10.501 20.8284 10.4683 20.9807 10.4049C21.133 10.3414 21.2713 10.2484 21.3875 10.1313C21.5047 10.0151 21.5977 9.87681 21.6611 9.72449C21.7246 9.57216 21.7572 9.40878 21.7572 9.24377C21.7572 9.07875 21.7246 8.91537 21.6611 8.76305C21.5977 8.61072 21.5047 8.47247 21.3875 8.35627L16.3875 3.35627C16.2686 3.24247 16.1284 3.15326 15.975 3.09377C15.6707 2.96874 15.3293 2.96874 15.025 3.09377C14.8716 3.15326 14.7314 3.24247 14.6125 3.35627L9.6125 8.35627C9.49595 8.47282 9.4035 8.61118 9.34043 8.76346C9.27735 8.91573 9.24489 9.07894 9.24489 9.24377C9.24489 9.40859 9.27735 9.5718 9.34043 9.72408C9.4035 9.87636 9.49595 10.0147 9.6125 10.1313C9.72905 10.2478 9.86741 10.3403 10.0197 10.4033C10.172 10.4664 10.3352 10.4989 10.5 10.4989C10.6648 10.4989 10.828 10.4664 10.9803 10.4033C11.1326 10.3403 11.271 10.2478 11.3875 10.1313ZM26.75 17.9938C26.4185 17.9938 26.1005 18.1255 25.8661 18.3599C25.6317 18.5943 25.5 18.9122 25.5 19.2438V24.2438C25.5 24.5753 25.3683 24.8932 25.1339 25.1277C24.8995 25.3621 24.5815 25.4938 24.25 25.4938H6.75C6.41848 25.4938 6.10054 25.3621 5.86612 25.1277C5.6317 24.8932 5.5 24.5753 5.5 24.2438V19.2438C5.5 18.9122 5.3683 18.5943 5.13388 18.3599C4.89946 18.1255 4.58152 17.9938 4.25 17.9938C3.91848 17.9938 3.60054 18.1255 3.36612 18.3599C3.1317 18.5943 3 18.9122 3 19.2438V24.2438C3 25.2383 3.39509 26.1922 4.09835 26.8954C4.80161 27.5987 5.75544 27.9938 6.75 27.9938H24.25C25.2446 27.9938 26.1984 27.5987 26.9017 26.8954C27.6049 26.1922 28 25.2383 28 24.2438V19.2438C28 18.9122 27.8683 18.5943 27.6339 18.3599C27.3995 18.1255 27.0815 17.9938 26.75 17.9938Z" fill="url(#paint0_linear_525_3880)"/>
<defs>
<linearGradient id="paint0_linear_525_3880" x1="15.5" y1="3" x2="15.5" y2="27.9938" gradientUnits="userSpaceOnUse">
<stop stop-color="#FFF400"/>
<stop offset="1" stop-color="#FF7400"/>
</linearGradient>
</defs>
</svg>
