<svg width="96" height="96" viewBox="0 0 96 96" fill="none" xmlns="http://www.w3.org/2000/svg">
<g clip-path="url(#clip0_1120_3861)">
<path fill-rule="evenodd" clip-rule="evenodd" d="M48 13C28.67 13 13 28.67 13 48C13 67.33 28.67 83 48 83C67.33 83 83 67.33 83 48C83 28.67 67.33 13 48 13ZM5 48C5 24.2518 24.2518 5 48 5C71.7482 5 91 24.2518 91 48C91 71.7482 71.7482 91 48 91C24.2518 91 5 71.7482 5 48ZM53 65C53 67.7614 50.7614 70 48 70C45.2386 70 43 67.7614 43 65C43 62.2386 45.2386 60 48 60C50.7614 60 53 62.2386 53 65ZM48 24C45.2941 24 43.1526 26.289 43.3326 28.9889L44.8004 51.0066C44.9127 52.6911 46.3118 54 48 54C49.6882 54 51.0873 52.6911 51.1996 51.0066L52.6674 28.9889C52.8474 26.289 50.7059 24 48 24Z" fill="#0A0900" fill-opacity="0.25"/>
</g>
<defs>
<clipPath id="clip0_1120_3861">
<rect width="96" height="96" fill="white"/>
</clipPath>
</defs>
</svg>
