<svg width="143" height="40" viewBox="0 0 143 40" fill="none" xmlns="http://www.w3.org/2000/svg">
<g filter="url(#filter0_d_272_3450)">
<path d="M33.2628 16.6212C33.2628 17.49 32.9576 18.2532 32.347 18.9107C31.7365 19.5447 30.9381 20.1083 29.9518 20.6014C28.9891 21.071 27.9089 21.4702 26.7113 21.799C25.5372 22.1277 24.3631 22.3978 23.189 22.6091C22.0383 22.8205 20.9582 22.9848 19.9484 23.1023C18.9622 23.1962 18.1755 23.2549 17.5885 23.2784L17.8703 30.4639L26.0421 33.8454L3.81616 34.1271L11.3892 30.1469L11.0722 13.6272L2.75946 9.85829L19.7019 10.3162C20.3359 10.3397 21.1108 10.3866 22.0266 10.4571C22.9659 10.5275 23.9287 10.6567 24.9149 10.8445C25.9246 11.0089 26.9226 11.2437 27.9089 11.549C28.9186 11.8308 29.8109 12.2065 30.5859 12.6762C31.3843 13.1223 32.03 13.6742 32.5231 14.3317C33.0163 14.9657 33.2628 15.7288 33.2628 16.6212ZM28.402 16.6212C28.402 16.1985 28.2376 15.8345 27.9089 15.5292C27.5801 15.2005 27.1575 14.9304 26.6409 14.7191C26.1242 14.4843 25.5489 14.2964 24.9149 14.1555C24.2809 13.9912 23.6586 13.8737 23.0481 13.8033C22.4375 13.7094 21.874 13.6507 21.3574 13.6272C20.8642 13.5802 20.4768 13.5567 20.195 13.5567C19.6549 13.5567 19.1031 13.5685 18.5395 13.592C17.9759 13.6154 17.4241 13.6507 16.884 13.6976L17.0601 20.1787C17.3654 20.2257 17.6472 20.2492 17.9055 20.2492C18.1873 20.2492 18.469 20.2492 18.7508 20.2492C19.0796 20.2492 19.5375 20.2374 20.1245 20.2139C20.7351 20.167 21.3926 20.0965 22.097 20.0026C22.825 19.8852 23.5529 19.7443 24.2809 19.5799C25.0323 19.3921 25.7133 19.169 26.3238 18.9107C26.9344 18.6289 27.4275 18.3001 27.8032 17.9244C28.2024 17.5487 28.402 17.1143 28.402 16.6212ZM44.8513 8.09713C44.8513 8.61374 44.7456 9.10686 44.5343 9.57651C44.3464 10.0227 44.0764 10.4219 43.7242 10.7741C43.3954 11.1028 42.9962 11.3729 42.5266 11.5842C42.0804 11.7721 41.599 11.866 41.0824 11.866C40.5658 11.866 40.0844 11.7721 39.6382 11.5842C39.1921 11.3729 38.7929 11.1028 38.4407 10.7741C38.1119 10.4219 37.8419 10.0227 37.6305 9.57651C37.4427 9.10686 37.3487 8.61374 37.3487 8.09713C37.3487 7.58052 37.4427 7.09914 37.6305 6.65297C37.8419 6.20681 38.1119 5.81936 38.4407 5.4906C38.7929 5.13837 39.1921 4.86833 39.6382 4.68047C40.0844 4.46913 40.5658 4.36346 41.0824 4.36346C41.599 4.36346 42.0804 4.46913 42.5266 4.68047C42.9962 4.86833 43.3954 5.13837 43.7242 5.4906C44.0764 5.81936 44.3464 6.20681 44.5343 6.65297C44.7456 7.09914 44.8513 7.58052 44.8513 8.09713ZM48.9724 33.0704L33.1924 32.7887L39.0395 29.1607L38.5463 17.4665L31.8187 14.2964H44.7456L43.5833 29.4072L48.9724 33.0704ZM67.676 25.8144C67.6995 27.3173 67.4881 28.6558 67.042 29.8299C66.6193 31.004 65.9853 31.9903 65.1399 32.7887C64.318 33.5871 63.3083 34.1859 62.1107 34.585C60.9366 35.0077 59.6216 35.2191 58.1657 35.2191C56.7333 35.2191 55.3831 34.9842 54.115 34.5146C52.8705 34.045 51.7785 33.3757 50.8393 32.5069C49.9234 31.638 49.1955 30.6048 48.6554 29.4072C48.1153 28.2096 47.8453 26.8711 47.8453 25.3918C47.8453 23.8419 48.1505 22.433 48.7611 21.165C49.3716 19.8969 50.1935 18.8168 51.2267 17.9244C52.2599 17.0321 53.4458 16.3511 54.7843 15.8815C56.1462 15.3884 57.5669 15.1418 59.0463 15.1418C59.8447 15.1418 60.7135 15.2709 61.6528 15.5292C62.6156 15.7875 63.5079 16.1633 64.3298 16.6564C65.1751 17.1495 65.8679 17.7601 66.408 18.488C66.9715 19.2159 67.2533 20.0613 67.2533 21.0241C67.2533 21.9164 66.9833 22.6326 66.4432 23.1727C65.9031 23.7128 65.1869 23.9828 64.2946 23.9828C63.4022 23.9828 62.6391 23.7363 62.005 23.2431C61.371 22.7265 61.054 22.0103 61.054 21.0945C61.054 20.7893 61.0775 20.4722 61.1245 20.1435C61.1949 19.7913 61.3123 19.486 61.4767 19.2277C61.0775 18.8989 60.6431 18.6641 60.1734 18.5232C59.7038 18.3823 59.2224 18.3119 58.7293 18.3119C57.837 18.3119 57.0738 18.535 56.4398 18.9811C55.8292 19.4038 55.3244 19.9439 54.9252 20.6014C54.5494 21.2589 54.2794 21.9986 54.115 22.8205C53.9506 23.6189 53.8685 24.382 53.8685 25.11C53.8685 26.0258 54.0094 26.8711 54.2911 27.6461C54.5729 28.3975 54.9839 29.055 55.524 29.6186C56.064 30.1587 56.7098 30.5931 57.4612 30.9218C58.2127 31.2271 59.0698 31.3797 60.0325 31.3797C60.8779 31.3797 61.6763 31.2154 62.4277 30.8866C63.1792 30.5579 63.8719 30.1352 64.5059 29.6186C65.1399 29.0785 65.7152 28.4797 66.2318 27.8222C66.7719 27.1647 67.2533 26.4954 67.676 25.8144ZM88.9509 14.1203L77.4681 29.6538L82.9277 30.2174L86.3443 22.5739L86.9431 33.6692L68.0282 32.366L79.9689 17.3961L72.7481 17.6426L70.3177 25.5679L68.1691 14.6487L88.9509 14.1203ZM108.782 14.1203L97.2988 29.6538L102.758 30.2174L106.175 22.5739L106.774 33.6692L87.8589 32.366L99.7996 17.3961L92.5789 17.6426L90.1485 25.5679L87.9998 14.6487L108.782 14.1203ZM122.096 35.1486L106.069 35.7474L112.093 31.9081L110.93 5.27926L102.653 2.21484L117.552 2.03872L116.495 31.732L122.096 35.1486ZM139.919 26.5894C139.919 26.7537 139.907 26.9181 139.884 27.0825C139.884 27.2469 139.884 27.4112 139.884 27.5756L125.548 27.8574C125.853 29.2428 126.546 30.2643 127.626 30.9218C128.706 31.5793 129.927 31.9081 131.289 31.9081C131.947 31.9081 132.616 31.8611 133.297 31.7672C133.978 31.6733 134.647 31.5206 135.305 31.3093C135.962 31.0979 136.585 30.8279 137.172 30.4991C137.759 30.1469 138.287 29.736 138.757 29.2663C138.498 30.2526 138.064 31.1214 137.453 31.8729C136.843 32.6243 136.115 33.2466 135.27 33.7397C134.448 34.2328 133.544 34.5968 132.557 34.8316C131.595 35.0899 130.632 35.2191 129.669 35.2191C128.354 35.2191 127.098 34.9842 125.9 34.5146C124.726 34.045 123.693 33.3992 122.8 32.5773C121.932 31.7554 121.239 30.7692 120.722 29.6186C120.206 28.4679 119.947 27.2116 119.947 25.8497C119.947 24.4173 120.241 23.114 120.828 21.9399C121.415 20.7658 122.19 19.7678 123.153 18.9459C124.115 18.1005 125.231 17.4548 126.499 17.0086C127.767 16.5625 129.094 16.3394 130.479 16.3394C131.935 16.3394 133.238 16.6094 134.389 17.1495C135.563 17.6896 136.561 18.4293 137.383 19.3686C138.205 20.3079 138.827 21.3998 139.25 22.6444C139.696 23.8654 139.919 25.1804 139.919 26.5894ZM134.53 24.793C134.483 24.159 134.354 23.5484 134.142 22.9614C133.931 22.3743 133.637 21.8577 133.262 21.4115C132.886 20.9654 132.428 20.6131 131.888 20.3548C131.371 20.073 130.761 19.9322 130.056 19.9322C129.352 19.9322 128.741 20.0613 128.225 20.3196C127.708 20.5779 127.274 20.9301 126.922 21.3763C126.569 21.799 126.276 22.3039 126.041 22.8909C125.83 23.4545 125.665 24.0415 125.548 24.6521L134.53 24.793Z" fill="url(#paint0_linear_272_3450)"/>
</g>
<defs>
<filter id="filter0_d_272_3450" x="0.505169" y="0.911581" width="141.668" height="38.2173" filterUnits="userSpaceOnUse" color-interpolation-filters="sRGB">
<feFlood flood-opacity="0" result="BackgroundImageFix"/>
<feColorMatrix in="SourceAlpha" type="matrix" values="0 0 0 0 0 0 0 0 0 0 0 0 0 0 0 0 0 0 127 0" result="hardAlpha"/>
<feOffset dy="1.12715"/>
<feGaussianBlur stdDeviation="1.12715"/>
<feComposite in2="hardAlpha" operator="out"/>
<feColorMatrix type="matrix" values="0 0 0 0 0 0 0 0 0 0 0 0 0 0 0 0 0 0 0.25 0"/>
<feBlend mode="normal" in2="BackgroundImageFix" result="effect1_dropShadow_272_3450"/>
<feBlend mode="normal" in="SourceGraphic" in2="effect1_dropShadow_272_3450" result="shape"/>
</filter>
<linearGradient id="paint0_linear_272_3450" x1="73.5" y1="-4" x2="73.5" y2="52" gradientUnits="userSpaceOnUse">
<stop stop-color="#FFF400"/>
<stop offset="1" stop-color="#FF7400"/>
</linearGradient>
</defs>
</svg>
