<svg width="60" height="60" viewBox="0 0 60 60" fill="none" xmlns="http://www.w3.org/2000/svg">
<path fill-rule="evenodd" clip-rule="evenodd" d="M9.56778 4.71486C8.14226 4.14496 6.75 5.79407 6.75 8.05248V22.4575C6.75 24.3625 7.75736 25.9067 9 25.9067H15.643V30.5057H9C6.1005 30.5057 3.75 26.9024 3.75 22.4575V8.05248C3.75 2.78286 6.9986 -1.06506 10.3248 0.264706L15.5562 2.35611C15.7416 2.43023 15.9324 2.46774 16.124 2.46774H54V7.06673H16.124C15.6769 7.06673 15.2317 6.9792 14.7991 6.80627L9.56778 4.71486ZM43.0313 34.1849H50.25C51.4926 34.1849 52.5 35.7292 52.5 37.6342V51.9472C52.5 54.2226 51.0881 55.8745 49.6564 55.2742L43.9127 52.866C43.4614 52.6768 42.9956 52.5809 42.5277 52.5809H5.25V57.1799H42.5277C42.7282 57.1799 42.9278 57.221 43.1213 57.3021L48.865 59.7103C52.2056 61.111 55.5 57.2564 55.5 51.9472V37.6342C55.5 33.1892 53.1495 29.5859 50.25 29.5859H43.0313V34.1849ZM1.875 52.3509C0.839466 52.3509 0 53.6378 0 55.2253C0 56.8128 0.839466 58.0997 1.875 58.0997C2.91053 58.0997 3.75 56.8128 3.75 55.2253C3.75 53.6378 2.91053 52.3509 1.875 52.3509ZM58.125 1.99198C57.0895 1.99198 56.25 3.27888 56.25 4.86635C56.25 6.45382 57.0895 7.74072 58.125 7.74072C59.1605 7.74072 60 6.45382 60 4.86635C60 3.27888 59.1605 1.99198 58.125 1.99198ZM29.475 42.6931C33.41 42.6931 36.6 37.8028 36.6 31.7705C36.6 25.7381 33.41 20.8478 29.475 20.8478C25.54 20.8478 22.35 25.7381 22.35 31.7705C22.35 37.8028 25.54 42.6931 29.475 42.6931ZM29.475 46.1423C34.6527 46.1423 38.85 39.7078 38.85 31.7705C38.85 23.8331 34.6527 17.3986 29.475 17.3986C24.2973 17.3986 20.1 23.8331 20.1 31.7705C20.1 39.7078 24.2973 46.1423 29.475 46.1423ZM29.55 39.9337C32.4495 39.9337 34.8 36.3303 34.8 31.8854C34.8 27.4405 32.4495 23.8372 29.55 23.8372C26.6505 23.8372 24.3 27.4405 24.3 31.8854C24.3 36.3303 26.6505 39.9337 29.55 39.9337Z" fill="url(#paint0_linear_305_3673)"/>
<path d="M29.0342 26.5812C29.0137 26.3704 28.8854 26.2237 28.7495 26.2692C28.3516 26.4025 27.97 26.6344 27.6198 26.9567C27.1976 27.3453 26.8294 27.8575 26.5364 28.4642C26.2433 29.0709 26.031 29.7602 25.9117 30.4926C25.8128 31.1001 25.7794 31.7274 25.8123 32.3497C25.8235 32.5622 25.9525 32.7076 26.09 32.6761C26.2275 32.6447 26.3213 32.4483 26.3115 32.2357C26.2875 31.7139 26.3173 31.1887 26.4002 30.6796C26.5035 30.0455 26.6872 29.4488 26.941 28.9236C27.1947 28.3983 27.5134 27.9548 27.8789 27.6184C28.1724 27.3483 28.4914 27.1515 28.824 27.0345C28.9595 26.9869 29.0547 26.792 29.0342 26.5812Z" fill="url(#paint1_linear_305_3673)"/>
<path fill-rule="evenodd" clip-rule="evenodd" d="M28.7575 26.3253C28.3636 26.4573 27.9858 26.6869 27.6391 27.006C27.2211 27.3907 26.8566 27.8978 26.5665 28.4984C26.2764 29.0991 26.0662 29.7814 25.9481 30.5065C25.8501 31.1079 25.8171 31.729 25.8496 32.3451C25.859 32.5218 25.9667 32.6462 26.0844 32.6193C26.2008 32.5927 26.2826 32.4253 26.2741 32.2398C26.2498 31.7119 26.2799 31.1807 26.3638 30.6657C26.4683 30.0243 26.6542 29.4207 26.9108 28.8893C27.1675 28.358 27.4899 27.9094 27.8596 27.5691C28.1565 27.2959 28.4792 27.0968 28.8156 26.9785C28.9339 26.9369 29.0145 26.7681 28.9971 26.5897C28.9796 26.4092 28.8705 26.2875 28.7575 26.3253ZM28.7495 26.2692C28.8854 26.2237 29.0137 26.3704 29.0342 26.5812C29.0547 26.792 28.9595 26.9869 28.824 27.0345C28.4914 27.1515 28.1724 27.3483 27.8789 27.6184C27.5134 27.9548 27.1947 28.3983 26.941 28.9236C26.6872 29.4488 26.5035 30.0455 26.4002 30.6796C26.3173 31.1887 26.2875 31.7139 26.3115 32.2357C26.3213 32.4483 26.2275 32.6447 26.09 32.6761C25.9525 32.7076 25.8235 32.5622 25.8123 32.3497C25.7794 31.7274 25.8128 31.1001 25.9117 30.4926C26.031 29.7602 26.2433 29.0709 26.5364 28.4642C26.8294 27.8575 27.1976 27.3453 27.6198 26.9567C27.97 26.6344 28.3516 26.4025 28.7495 26.2692Z" fill="black" fill-opacity="0.25"/>
<defs>
<linearGradient id="paint0_linear_305_3673" x1="29.55" y1="26.1367" x2="29.55" y2="38.554" gradientUnits="userSpaceOnUse">
<stop stop-color="#FFF400"/>
<stop offset="1" stop-color="#FF7400"/>
</linearGradient>
<linearGradient id="paint1_linear_305_3673" x1="69.5092" y1="-1.16079" x2="22.5728" y2="94.7768" gradientUnits="userSpaceOnUse">
<stop stop-color="#D9D9D9"/>
<stop offset="0.451805" stop-color="white"/>
<stop offset="1" stop-color="#F4F4F4" stop-opacity="0.64"/>
</linearGradient>
</defs>
</svg>
