<svg width="30" height="30" viewBox="0 0 30 30" fill="none" xmlns="http://www.w3.org/2000/svg">
<path d="M19.25 13.95L13.125 10C12.935 9.89029 12.7194 9.83253 12.5 9.83253C12.2806 9.83253 12.065 9.89029 11.875 10C11.6897 10.1069 11.5349 10.2596 11.4255 10.4434C11.316 10.6273 11.2556 10.8361 11.25 11.05V18.95C11.2516 19.1727 11.3127 19.391 11.427 19.5822C11.5413 19.7734 11.7046 19.9306 11.9 20.0375C12.0818 20.1445 12.289 20.2007 12.5 20.2C12.7214 20.1848 12.9359 20.1161 13.125 20L19.25 16.05C19.4254 15.9367 19.5697 15.7812 19.6696 15.5978C19.7694 15.4144 19.8218 15.2089 19.8218 15C19.8218 14.7912 19.7694 14.5856 19.6696 14.4022C19.5697 14.2188 19.4254 14.0633 19.25 13.95ZM13.75 16.65V13.35L16.25 15L13.75 16.65ZM24.225 5.6375L22.2875 5.3875C17.4888 4.79995 12.6362 4.79995 7.8375 5.3875L5.9 5.6375C4.96839 5.73889 4.10675 6.17984 3.47959 6.87616C2.85244 7.57248 2.50372 8.47539 2.5 9.4125V20.5875C2.50795 21.5107 2.85063 22.3997 3.46443 23.0893C4.07823 23.779 4.92144 24.2225 5.8375 24.3375L7.775 24.575C10.1722 24.8663 12.5852 25.0082 15 25C17.4153 24.9999 19.8283 24.8496 22.225 24.55L24.1625 24.3125C25.0786 24.1975 25.9218 23.754 26.5356 23.0643C27.1494 22.3747 27.4921 21.4857 27.5 20.5625V9.4125C27.4981 8.48497 27.1581 7.58994 26.5438 6.89505C25.9294 6.20016 25.0828 5.75306 24.1625 5.6375H24.225ZM25.0625 20.6375C25.0635 20.9524 24.9456 21.2561 24.7324 21.4878C24.5192 21.7196 24.2264 21.8623 23.9125 21.8875L21.975 22.125C17.3846 22.7 12.7404 22.7 8.15 22.125L6.2125 21.8875C5.89861 21.8623 5.60579 21.7196 5.39258 21.4878C5.17937 21.2561 5.06149 20.9524 5.0625 20.6375V9.4125C5.0774 9.10244 5.20069 8.80745 5.41086 8.579C5.62104 8.35055 5.90475 8.20314 6.2125 8.1625L8.0875 7.875C12.6784 7.30831 17.3216 7.30831 21.9125 7.875L23.85 8.1125C24.1578 8.15314 24.4415 8.30055 24.6516 8.529C24.8618 8.75745 24.9851 9.05244 25 9.3625L25.0625 20.6375Z" fill="black"/>
</svg>
