<svg width="30" height="30" viewBox="0 0 30 30" fill="none" xmlns="http://www.w3.org/2000/svg">
<path d="M28.739 4.93776C28.7392 4.71697 28.6808 4.50008 28.5698 4.30919C28.4589 4.1183 28.2993 3.96022 28.1074 3.85105C27.9155 3.74188 27.6981 3.68552 27.4773 3.68771C27.2565 3.68991 27.0403 3.75057 26.8506 3.86353C26.1189 4.29901 25.3312 4.63251 24.5093 4.85478C23.3356 3.84757 21.8385 3.29641 20.2918 3.30204C18.5951 3.304 16.9654 3.96529 15.7471 5.14627C14.5288 6.32726 13.8171 7.9355 13.7623 9.63139C10.4173 9.09797 7.38558 7.35205 5.24536 4.72657C5.1164 4.57011 4.95171 4.44696 4.76518 4.3675C4.57865 4.28804 4.37575 4.2546 4.17358 4.27001C3.97153 4.28664 3.77658 4.35225 3.60557 4.46115C3.43457 4.57004 3.29266 4.71896 3.19213 4.89501C2.67654 5.79477 2.38042 6.80345 2.32782 7.83914C2.27522 8.87483 2.46762 9.90832 2.88939 10.8557L2.88696 10.8581C2.69739 10.9749 2.54095 11.1383 2.43259 11.3328C2.32423 11.5273 2.26758 11.7463 2.26806 11.969C2.26576 12.1526 2.27678 12.3362 2.30102 12.5183C2.42869 14.0911 3.12575 15.5634 4.26147 16.6589C4.18442 16.8057 4.1374 16.9664 4.12315 17.1315C4.10889 17.2967 4.1277 17.463 4.17846 17.6208C4.6736 19.1635 5.72658 20.4659 7.13134 21.2732C5.70414 21.8251 4.16312 22.0175 2.64403 21.8335C2.36287 21.7982 2.07807 21.8595 1.83634 22.0074C1.59461 22.1552 1.41032 22.3809 1.31368 22.6472C1.21704 22.9136 1.21379 23.2049 1.30448 23.4734C1.39517 23.7419 1.5744 23.9715 1.81278 24.1247C4.4254 25.8074 7.46738 26.7021 10.575 26.7017C14.0991 26.7413 17.5375 25.6152 20.3553 23.4985C23.1731 21.3818 25.2124 18.3931 26.156 14.9975C26.5973 13.5183 26.8227 11.9831 26.825 10.4395C26.825 10.3577 26.825 10.2734 26.8237 10.1892C27.4764 9.48538 27.982 8.65835 28.3108 7.75659C28.6397 6.85483 28.7853 5.8965 28.739 4.93776ZM24.6057 8.95264C24.3992 9.19683 24.2948 9.51114 24.314 9.83033C24.3262 10.0366 24.3249 10.2441 24.3249 10.4395C24.3224 11.7439 24.1312 13.0411 23.7573 14.2908C22.9867 17.18 21.2688 19.7271 18.8787 21.524C16.4886 23.321 13.5646 24.2639 10.575 24.2017C9.50109 24.202 8.43089 24.0758 7.38652 23.8257C8.71828 23.3965 9.96351 22.7348 11.0645 21.8713C11.2673 21.7117 11.4157 21.4932 11.4894 21.2458C11.563 20.9985 11.5583 20.7344 11.476 20.4898C11.3936 20.2452 11.2375 20.0321 11.0292 19.8797C10.8209 19.7273 10.5706 19.6431 10.3125 19.6387C9.27353 19.6225 8.28141 19.2037 7.54516 18.4705C7.73193 18.4351 7.91748 18.3911 8.10181 18.3386C8.37182 18.2618 8.60811 18.0963 8.77263 17.8688C8.93715 17.6413 9.02033 17.3651 9.00877 17.0846C8.99721 16.8041 8.89159 16.5356 8.70891 16.3225C8.52623 16.1093 8.27713 15.9638 8.00171 15.9094C7.39863 15.7903 6.83114 15.5338 6.34335 15.1597C5.85556 14.7856 5.46061 14.304 5.18921 13.7524C5.41512 13.7833 5.64247 13.8024 5.87036 13.8098C6.14109 13.8139 6.4061 13.7318 6.62708 13.5753C6.84805 13.4189 7.01354 13.1962 7.09961 12.9395C7.18208 12.6804 7.17784 12.4015 7.08752 12.1451C6.9972 11.8887 6.82573 11.6687 6.59912 11.5186C6.0493 11.1523 5.59892 10.6553 5.28831 10.0723C4.97771 9.48917 4.81657 8.83815 4.81933 8.17751C4.81933 8.09451 4.82177 8.01149 4.82666 7.92971C7.62823 10.5425 11.2621 12.0828 15.0879 12.2791C15.281 12.2867 15.4733 12.2503 15.6504 12.1727C15.8274 12.0951 15.9844 11.9783 16.1096 11.8311C16.2336 11.6824 16.3214 11.5071 16.3661 11.3188C16.4108 11.1305 16.4111 10.9343 16.3671 10.7459C16.2957 10.4476 16.2592 10.142 16.2585 9.83522C16.2596 8.76589 16.6849 7.74068 17.4411 6.98455C18.1972 6.22842 19.2224 5.80314 20.2917 5.80201C20.8419 5.80053 21.3864 5.91313 21.8909 6.13269C22.3953 6.35225 22.8488 6.67401 23.2226 7.07764C23.3668 7.23275 23.5483 7.34839 23.7498 7.41356C23.9512 7.47874 24.166 7.49129 24.3737 7.45001C24.8872 7.35008 25.3933 7.2155 25.8886 7.04718C25.5508 7.7384 25.1191 8.37962 24.6057 8.95264Z" fill="black"/>
</svg>
