<svg width="33" height="33" viewBox="0 0 33 33" fill="none" xmlns="http://www.w3.org/2000/svg">
<path d="M20.3639 16.8852C21.2342 15.9505 21.7246 14.7247 21.7389 13.4477C21.7389 12.0692 21.1913 10.7472 20.2166 9.77246C19.2419 8.79774 17.9199 8.25015 16.5414 8.25015C15.1629 8.25015 13.8409 8.79774 12.8662 9.77246C11.8915 10.7472 11.3439 12.0692 11.3439 13.4477C11.3583 14.7247 11.8486 15.9505 12.7189 16.8852C11.5071 17.4886 10.4642 18.3838 9.68416 19.4903C8.90412 20.5967 8.41134 21.8797 8.25015 23.2239C8.21004 23.5886 8.31643 23.9542 8.54593 24.2405C8.77543 24.5267 9.10923 24.71 9.4739 24.7502C9.83857 24.7903 10.2042 24.6839 10.4905 24.4544C10.7767 24.2249 10.96 23.8911 11.0002 23.5264C11.1642 22.1942 11.8098 20.968 12.8153 20.0788C13.8207 19.1896 15.1166 18.6987 16.4589 18.6987C17.8012 18.6987 19.0971 19.1896 20.1025 20.0788C21.108 20.968 21.7536 22.1942 21.9177 23.5264C21.9559 23.879 22.1289 24.2031 22.4005 24.4312C22.6721 24.6592 23.0213 24.7735 23.3752 24.7502H23.5264C23.8868 24.7087 24.2163 24.5264 24.4429 24.2431C24.6696 23.9598 24.7751 23.5984 24.7364 23.2377C24.5872 21.9006 24.1099 20.6211 23.3471 19.5128C22.5843 18.4046 21.5596 17.502 20.3639 16.8852ZM16.5002 15.8952C16.0161 15.8952 15.5429 15.7516 15.1404 15.4827C14.7379 15.2137 14.4242 14.8315 14.239 14.3843C14.0537 13.937 14.0052 13.4449 14.0997 12.9702C14.1941 12.4954 14.4272 12.0593 14.7695 11.717C15.1118 11.3747 15.5479 11.1416 16.0227 11.0472C16.4974 10.9527 16.9895 11.0012 17.4368 11.1865C17.884 11.3717 18.2662 11.6854 18.5352 12.0879C18.8041 12.4904 18.9477 12.9636 18.9477 13.4477C18.9477 14.0968 18.6898 14.7193 18.2308 15.1783C17.7718 15.6373 17.1493 15.8952 16.5002 15.8952ZM26.1252 2.75015H6.87515C5.78113 2.75015 4.73192 3.18475 3.95834 3.95834C3.18475 4.73192 2.75015 5.78113 2.75015 6.87515V26.1252C2.75015 27.2192 3.18475 28.2684 3.95834 29.042C4.73192 29.8156 5.78113 30.2502 6.87515 30.2502H26.1252C27.2192 30.2502 28.2684 29.8156 29.042 29.042C29.8156 28.2684 30.2502 27.2192 30.2502 26.1252V6.87515C30.2502 5.78113 29.8156 4.73192 29.042 3.95834C28.2684 3.18475 27.2192 2.75015 26.1252 2.75015ZM27.5002 26.1252C27.5002 26.4898 27.3553 26.8396 27.0974 27.0974C26.8396 27.3553 26.4898 27.5002 26.1252 27.5002H6.87515C6.51048 27.5002 6.16074 27.3553 5.90288 27.0974C5.64502 26.8396 5.50015 26.4898 5.50015 26.1252V6.87515C5.50015 6.51048 5.64502 6.16074 5.90288 5.90288C6.16074 5.64502 6.51048 5.50015 6.87515 5.50015H26.1252C26.4898 5.50015 26.8396 5.64502 27.0974 5.90288C27.3553 6.16074 27.5002 6.51048 27.5002 6.87515V26.1252Z" fill="#333333"/>
</svg>
