<svg width="305" height="52" viewBox="0 0 305 52" fill="none" xmlns="http://www.w3.org/2000/svg">
<g filter="url(#filter0_di_527_4154)">
<path d="M152.5 39.0173C184.524 39.0173 214.116 37.7556 238.07 35.6204C221.236 34.9301 202.271 33.754 186.586 32.6751C168.64 31.4408 154.831 30.3229 153.167 30.1783L152.566 30.126L152.5 30.1306L94.3618 26.0655C94.4319 26.4663 95.0753 28.3751 97.1812 30.7097C99.4151 33.1861 103.277 36.1201 109.773 38.2388L109.776 38.2398C123.279 38.7452 137.627 39.0173 152.5 39.0173Z" fill="#7C7C7C" fill-opacity="0.1" shape-rendering="crispEdges"/>
<path d="M105.704 38.0792C58.8376 36.1375 22.8311 31.3602 11.6393 25.4373L11.9757 25.388C23.8564 23.645 42.8815 21.7694 59.4545 20.2938C74.5625 18.9486 87.5111 17.9464 90.9073 17.6933V25.8239L90.9642 25.8279L90.9684 26.0113C90.9742 26.2593 91.5733 28.2696 93.8145 30.7542C95.9508 33.1225 99.5952 35.9414 105.704 38.0792Z" fill="#7C7C7C" fill-opacity="0.1" shape-rendering="crispEdges"/>
<path d="M8 21.5173C8 22.6845 8.94356 23.825 10.7433 24.9283C22.9528 23.2024 41.4551 21.3874 57.4485 19.9633C74.0759 18.4829 88.1381 17.4122 89.9073 17.2873L90.9073 17.2167V17.2107L149.077 13.1434C144.736 12.8595 131.678 12.0365 115.46 11.1615C96.6364 10.146 73.7196 9.06954 55.2911 8.67867L54.4621 8.66109C25.891 11.8582 8 16.4347 8 21.5173Z" fill="#7C7C7C" fill-opacity="0.1" shape-rendering="crispEdges"/>
<path d="M57.6556 8.31417C83.0354 5.63789 116.205 4.0173 152.5 4.0173C167.345 4.0173 181.668 4.28842 195.148 4.792L195.502 4.90847C201.95 7.02943 205.744 9.96463 207.921 12.4418C209.813 14.5961 210.47 16.3875 210.608 16.967L152.5 12.904L152.494 12.9044L152.162 12.8811C150.387 12.7566 135.722 11.8057 116.838 10.7869C98.564 9.80098 76.1861 8.74305 57.6556 8.31417Z" fill="#7C7C7C" fill-opacity="0.1" shape-rendering="crispEdges"/>
<path d="M188.258 32.3185C204.618 33.4437 224.337 34.6592 241.348 35.3194C275.221 32.1167 297 27.125 297 21.5173C297 20.3445 296.047 19.1986 294.231 18.0904C282.068 19.8143 263.712 21.6268 247.831 23.051C231.245 24.5383 217.213 25.6147 215.447 25.7404L213.987 25.8443L213.94 25.8346L155.796 29.9001C159.052 30.1694 171.913 31.1943 188.258 32.3185Z" fill="#7C7C7C" fill-opacity="0.1" shape-rendering="crispEdges"/>
<path d="M214.093 25.3604V17.2107L214.025 17.2059V17.1423C214.025 16.8943 213.472 14.8838 211.288 12.3984C209.169 9.98616 205.496 7.10604 199.233 4.95276C246.088 6.89107 282.099 11.6631 293.33 17.5812L293.151 17.6076C281.32 19.3555 262.347 21.2389 245.816 22.7213C230.175 24.1238 216.851 25.156 214.093 25.3604Z" fill="#7C7C7C" fill-opacity="0.1" shape-rendering="crispEdges"/>
</g>
<defs>
<filter id="filter0_di_527_4154" x="0" y="0.0173035" width="305" height="51" filterUnits="userSpaceOnUse" color-interpolation-filters="sRGB">
<feFlood flood-opacity="0" result="BackgroundImageFix"/>
<feColorMatrix in="SourceAlpha" type="matrix" values="0 0 0 0 0 0 0 0 0 0 0 0 0 0 0 0 0 0 127 0" result="hardAlpha"/>
<feOffset dy="4"/>
<feGaussianBlur stdDeviation="4"/>
<feComposite in2="hardAlpha" operator="out"/>
<feColorMatrix type="matrix" values="0 0 0 0 0 0 0 0 0 0 0 0 0 0 0 0 0 0 0.15 0"/>
<feBlend mode="normal" in2="BackgroundImageFix" result="effect1_dropShadow_527_4154"/>
<feBlend mode="normal" in="SourceGraphic" in2="effect1_dropShadow_527_4154" result="shape"/>
<feColorMatrix in="SourceAlpha" type="matrix" values="0 0 0 0 0 0 0 0 0 0 0 0 0 0 0 0 0 0 127 0" result="hardAlpha"/>
<feOffset dy="4"/>
<feGaussianBlur stdDeviation="4"/>
<feComposite in2="hardAlpha" operator="arithmetic" k2="-1" k3="1"/>
<feColorMatrix type="matrix" values="0 0 0 0 0 0 0 0 0 0 0 0 0 0 0 0 0 0 0.05 0"/>
<feBlend mode="normal" in2="shape" result="effect2_innerShadow_527_4154"/>
</filter>
</defs>
</svg>
