<svg width="425" height="609" viewBox="0 0 433 619" fill="none" xmlns="http://www.w3.org/2000/svg">
<g opacity="0.5">
<g filter="url(#filter0_d_527_4248)">
<path d="M5.97499 373.735C5.83326 373.421 6.2015 373.123 6.47922 373.328L28.7645 389.732C28.8109 389.766 28.8477 389.811 28.8714 389.864L34.1842 401.648C34.329 401.969 33.9436 402.268 33.6689 402.047L10.3334 383.314C10.2922 383.281 10.2594 383.238 10.2377 383.19L5.97499 373.735Z" fill="#D9D9D9"/>
<path d="M5.97499 373.735C5.83326 373.421 6.2015 373.123 6.47922 373.328L28.7645 389.732C28.8109 389.766 28.8477 389.811 28.8714 389.864L34.1842 401.648C34.329 401.969 33.9436 402.268 33.6689 402.047L10.3334 383.314C10.2922 383.281 10.2594 383.238 10.2377 383.19L5.97499 373.735Z" fill="url(#paint0_linear_527_4248)" fill-opacity="0.5"/>
<path d="M6.37988 373.462L28.6652 389.867C28.6884 389.884 28.7068 389.906 28.7186 389.933L34.0314 401.717C34.1039 401.878 33.9112 402.027 33.7738 401.917L10.4383 383.183C10.4177 383.167 10.4013 383.145 10.3905 383.121L6.12776 373.666C6.0569 373.509 6.24102 373.36 6.37988 373.462Z" stroke="black" stroke-opacity="0.1" stroke-width="0.33516"/>
<path d="M29.0058 390.162C28.9452 390.028 28.9795 389.87 29.0902 389.773L52.6637 369.076C52.833 368.927 53.0978 368.985 53.1904 369.19L58.0016 379.862C58.0609 379.993 58.0294 380.148 57.9234 380.246L34.6868 401.69C34.5187 401.845 34.2479 401.79 34.1539 401.582L29.0058 390.162Z" fill="#D9D9D9"/>
<path d="M29.0058 390.162C28.9452 390.028 28.9795 389.87 29.0902 389.773L52.6637 369.076C52.833 368.927 53.0978 368.985 53.1904 369.19L58.0016 379.862C58.0609 379.993 58.0294 380.148 57.9234 380.246L34.6868 401.69C34.5187 401.845 34.2479 401.79 34.1539 401.582L29.0058 390.162Z" fill="url(#paint1_linear_527_4248)" fill-opacity="0.5"/>
<path d="M29.2008 389.899L52.7743 369.202C52.8589 369.128 52.9913 369.156 53.0376 369.259L57.8489 379.931C57.8785 379.997 57.8628 380.074 57.8098 380.123L34.5731 401.567C34.4891 401.645 34.3537 401.617 34.3067 401.513L29.1586 390.094C29.1283 390.026 29.1454 389.947 29.2008 389.899Z" stroke="black" stroke-opacity="0.1" stroke-width="0.33516"/>
<path d="M6.41784 373.387C6.24155 373.257 6.23508 372.995 6.40474 372.857L28.3348 354.964C28.4422 354.877 28.5923 354.864 28.7127 354.933L52.5958 368.544C52.7959 368.658 52.824 368.936 52.651 369.087L29.0959 389.764C28.9776 389.867 28.8028 389.875 28.676 389.782L6.41784 373.387Z" fill="url(#paint2_linear_527_4248)" fill-opacity="0.5"/>
<path d="M6.51068 372.987L28.4408 355.094C28.4944 355.05 28.5695 355.044 28.6297 355.078L52.5129 368.69C52.6129 368.747 52.627 368.886 52.5404 368.961L28.9854 389.638C28.9262 389.69 28.8388 389.693 28.7754 389.647L6.51723 373.252C6.42908 373.187 6.42585 373.056 6.51068 372.987Z" stroke="black" stroke-opacity="0.1" stroke-width="0.33516"/>
</g>
<g filter="url(#filter1_d_527_4248)">
<path d="M72.7532 53.5469C72.8526 53.2166 73.3258 53.2336 73.4012 53.5701L79.4526 80.5722C79.4652 80.6284 79.4631 80.6869 79.4465 80.742L75.7223 93.1206C75.6208 93.458 75.1341 93.4303 75.0716 93.0836L69.7563 63.6348C69.7469 63.5828 69.75 63.5293 69.7652 63.4787L72.7532 53.5469Z" fill="#D9D9D9"/>
<path d="M72.7532 53.5469C72.8526 53.2166 73.3258 53.2336 73.4012 53.5701L79.4526 80.5722C79.4652 80.6284 79.4631 80.6869 79.4465 80.742L75.7223 93.1206C75.6208 93.458 75.1341 93.4303 75.0716 93.0836L69.7563 63.6348C69.7469 63.5828 69.75 63.5293 69.7652 63.4787L72.7532 53.5469Z" fill="url(#paint3_linear_527_4248)" fill-opacity="0.5"/>
<path d="M73.2377 53.6068L79.289 80.6088C79.2953 80.6369 79.2943 80.6662 79.286 80.6937L75.5619 93.0723C75.5111 93.241 75.2678 93.2272 75.2365 93.0538L69.9212 63.605C69.9165 63.579 69.9181 63.5523 69.9257 63.527L72.9137 53.5951C72.9634 53.43 73.2 53.4385 73.2377 53.6068Z" stroke="black" stroke-opacity="0.1" stroke-width="0.33516"/>
<path d="M79.3521 81.0558C79.3946 80.9147 79.5242 80.8179 79.6715 80.8172L111.041 80.6691C111.266 80.668 111.428 80.885 111.364 81.1008L107.991 92.3107C107.949 92.4489 107.824 92.5449 107.68 92.5492L76.0743 93.4822C75.8456 93.489 75.6775 93.2697 75.7435 93.0506L79.3521 81.0558Z" fill="#D9D9D9"/>
<path d="M79.3521 81.0558C79.3946 80.9147 79.5242 80.8179 79.6715 80.8172L111.041 80.6691C111.266 80.668 111.428 80.885 111.364 81.1008L107.991 92.3107C107.949 92.4489 107.824 92.5449 107.68 92.5492L76.0743 93.4822C75.8456 93.489 75.6775 93.2697 75.7435 93.0506L79.3521 81.0558Z" fill="url(#paint4_linear_527_4248)" fill-opacity="0.5"/>
<path d="M79.6723 80.9848L111.042 80.8366C111.154 80.8361 111.236 80.9446 111.203 81.0525L107.831 92.2625C107.81 92.3315 107.747 92.3796 107.675 92.3817L76.0694 93.3147C75.955 93.3181 75.871 93.2084 75.9039 93.0989L79.5126 81.1041C79.5338 81.0336 79.5986 80.9852 79.6723 80.9848Z" stroke="black" stroke-opacity="0.1" stroke-width="0.33516"/>
<path d="M73.316 53.5744C73.2682 53.3607 73.4348 53.1593 73.6536 53.1662L101.943 54.0555C102.082 54.0598 102.203 54.1489 102.249 54.2796L111.338 80.2231C111.415 80.4404 111.254 80.668 111.024 80.6691L79.6816 80.8137C79.5241 80.8144 79.3874 80.7054 79.353 80.5517L73.316 53.5744Z" fill="url(#paint5_linear_527_4248)" fill-opacity="0.5"/>
<path d="M73.6484 53.3337L101.938 54.223C102.007 54.2251 102.068 54.2697 102.091 54.335L111.18 80.2785C111.218 80.3872 111.138 80.501 111.023 80.5015L79.6808 80.6461C79.6021 80.6465 79.5337 80.592 79.5165 80.5151L73.4796 53.5378C73.4557 53.4309 73.539 53.3302 73.6484 53.3337Z" stroke="black" stroke-opacity="0.1" stroke-width="0.33516"/>
</g>
<g filter="url(#filter2_d_527_4248)">
<path d="M233.021 2.4056C233.345 2.28805 233.614 2.67775 233.389 2.93921L215.347 23.9205C215.31 23.9642 215.262 23.9974 215.208 24.017L203.055 28.4237C202.724 28.5438 202.455 28.137 202.696 27.8797L223.14 6.02736C223.176 5.98877 223.221 5.95927 223.271 5.94126L233.021 2.4056Z" fill="#D9D9D9"/>
<path d="M233.021 2.4056C233.345 2.28805 233.614 2.67775 233.389 2.93921L215.347 23.9205C215.31 23.9642 215.262 23.9974 215.208 24.017L203.055 28.4237C202.724 28.5438 202.455 28.137 202.696 27.8797L223.14 6.02736C223.176 5.98877 223.221 5.95927 223.271 5.94126L233.021 2.4056Z" fill="url(#paint6_linear_527_4248)" fill-opacity="0.5"/>
<path d="M233.262 2.82995L215.22 23.8112C215.202 23.8331 215.178 23.8497 215.15 23.8595L202.998 28.2662C202.832 28.3262 202.698 28.1228 202.819 27.9942L223.263 6.14185C223.281 6.12256 223.303 6.1078 223.328 6.0988L233.078 2.56315C233.24 2.50437 233.375 2.69922 233.262 2.82995Z" stroke="black" stroke-opacity="0.1" stroke-width="0.33516"/>
<path d="M214.9 24.1292C215.038 24.079 215.193 24.1251 215.282 24.2429L234.137 49.3137C234.273 49.4937 234.195 49.7534 233.984 49.8302L222.978 53.8209C222.843 53.87 222.691 53.8269 222.601 53.7138L202.976 28.9224C202.834 28.743 202.909 28.4773 203.124 28.3993L214.9 24.1292Z" fill="#D9D9D9"/>
<path d="M214.9 24.1292C215.038 24.079 215.193 24.1251 215.282 24.2429L234.137 49.3137C234.273 49.4937 234.195 49.7534 233.984 49.8302L222.978 53.8209C222.843 53.87 222.691 53.8269 222.601 53.7138L202.976 28.9224C202.834 28.743 202.909 28.4773 203.124 28.3993L214.9 24.1292Z" fill="url(#paint7_linear_527_4248)" fill-opacity="0.5"/>
<path d="M215.148 24.3436L234.003 49.4144C234.071 49.5044 234.032 49.6343 233.926 49.6727L222.921 53.6633C222.854 53.6879 222.778 53.6664 222.733 53.6098L203.107 28.8184C203.036 28.7287 203.074 28.5958 203.181 28.5568L214.957 24.2868C215.026 24.2617 215.104 24.2847 215.148 24.3436Z" stroke="black" stroke-opacity="0.1" stroke-width="0.33516"/>
<path d="M233.335 2.87411C233.478 2.70814 233.739 2.72145 233.864 2.90108L250.048 26.1212C250.127 26.2348 250.128 26.3855 250.051 26.5003L234.673 49.286C234.544 49.4769 234.265 49.484 234.127 49.3L215.291 24.2491C215.196 24.1232 215.202 23.9484 215.305 23.8291L233.335 2.87411Z" fill="url(#paint8_linear_527_4248)" fill-opacity="0.5"/>
<path d="M233.727 2.9969L249.911 26.217C249.95 26.2738 249.951 26.3492 249.912 26.4066L234.534 49.1923C234.469 49.2877 234.33 49.2913 234.261 49.1993L215.425 24.1484C215.377 24.0855 215.38 23.9981 215.432 23.9384L233.462 2.98342C233.534 2.90043 233.664 2.90708 233.727 2.9969Z" stroke="black" stroke-opacity="0.1" stroke-width="0.33516"/>
</g>
<g filter="url(#filter3_d_527_4248)">
<path d="M385.021 33.4056C385.345 33.288 385.614 33.6777 385.389 33.9392L367.347 54.9205C367.31 54.9642 367.262 54.9974 367.208 55.017L355.055 59.4237C354.724 59.5438 354.455 59.137 354.696 58.8797L375.14 37.0274C375.176 36.9888 375.221 36.9593 375.271 36.9413L385.021 33.4056Z" fill="#D9D9D9"/>
<path d="M385.021 33.4056C385.345 33.288 385.614 33.6777 385.389 33.9392L367.347 54.9205C367.31 54.9642 367.262 54.9974 367.208 55.017L355.055 59.4237C354.724 59.5438 354.455 59.137 354.696 58.8797L375.14 37.0274C375.176 36.9888 375.221 36.9593 375.271 36.9413L385.021 33.4056Z" fill="url(#paint9_linear_527_4248)" fill-opacity="0.5"/>
<path d="M385.262 33.83L367.22 54.8112C367.202 54.8331 367.178 54.8497 367.15 54.8595L354.998 59.2662C354.832 59.3262 354.698 59.1228 354.819 58.9942L375.263 37.1419C375.281 37.1226 375.303 37.1078 375.328 37.0988L385.078 33.5631C385.24 33.5044 385.375 33.6992 385.262 33.83Z" stroke="black" stroke-opacity="0.1" stroke-width="0.33516"/>
<path d="M366.9 55.1292C367.038 55.079 367.193 55.1251 367.282 55.2429L386.137 80.3137C386.273 80.4937 386.195 80.7534 385.984 80.8302L374.978 84.8209C374.843 84.87 374.691 84.8269 374.601 84.7138L354.976 59.9224C354.834 59.743 354.909 59.4773 355.124 59.3993L366.9 55.1292Z" fill="#D9D9D9"/>
<path d="M366.9 55.1292C367.038 55.079 367.193 55.1251 367.282 55.2429L386.137 80.3137C386.273 80.4937 386.195 80.7534 385.984 80.8302L374.978 84.8209C374.843 84.87 374.691 84.8269 374.601 84.7138L354.976 59.9224C354.834 59.743 354.909 59.4773 355.124 59.3993L366.9 55.1292Z" fill="url(#paint10_linear_527_4248)" fill-opacity="0.5"/>
<path d="M367.148 55.3436L386.003 80.4144C386.071 80.5044 386.032 80.6343 385.926 80.6727L374.921 84.6633C374.854 84.6879 374.778 84.6664 374.733 84.6098L355.107 59.8184C355.036 59.7287 355.074 59.5958 355.181 59.5568L366.957 55.2868C367.026 55.2617 367.104 55.2847 367.148 55.3436Z" stroke="black" stroke-opacity="0.1" stroke-width="0.33516"/>
<path d="M385.335 33.8741C385.478 33.7081 385.739 33.7214 385.864 33.9011L402.048 57.1212C402.127 57.2348 402.128 57.3855 402.051 57.5003L386.673 80.286C386.544 80.4769 386.265 80.484 386.127 80.3L367.291 55.2491C367.196 55.1232 367.202 54.9484 367.305 54.8291L385.335 33.8741Z" fill="url(#paint11_linear_527_4248)" fill-opacity="0.5"/>
<path d="M385.727 33.9969L401.911 57.217C401.95 57.2738 401.951 57.3492 401.912 57.4066L386.534 80.1923C386.469 80.2877 386.33 80.2913 386.261 80.1993L367.425 55.1484C367.377 55.0854 367.38 54.9981 367.432 54.9384L385.462 33.9834C385.534 33.9004 385.664 33.9071 385.727 33.9969Z" stroke="black" stroke-opacity="0.1" stroke-width="0.33516"/>
</g>
<g filter="url(#filter4_d_527_4248)">
<path d="M304.074 379.533C303.738 379.612 303.516 379.194 303.77 378.96L324.126 360.215C324.168 360.176 324.22 360.149 324.276 360.136L336.858 357.17C337.201 357.089 337.42 357.524 337.151 357.752L314.308 377.083C314.268 377.117 314.22 377.141 314.169 377.153L304.074 379.533Z" fill="#D9D9D9"/>
<path d="M304.074 379.533C303.738 379.612 303.516 379.194 303.77 378.96L324.126 360.215C324.168 360.176 324.22 360.149 324.276 360.136L336.858 357.17C337.201 357.089 337.42 357.524 337.151 357.752L314.308 377.083C314.268 377.117 314.22 377.141 314.169 377.153L304.074 379.533Z" fill="url(#paint12_linear_527_4248)" fill-opacity="0.5"/>
<path d="M303.883 379.083L324.239 360.339C324.26 360.319 324.286 360.305 324.314 360.299L336.896 357.333C337.068 357.292 337.177 357.51 337.043 357.624L314.2 376.955C314.18 376.972 314.156 376.984 314.13 376.99L304.035 379.37C303.867 379.409 303.756 379.2 303.883 379.083Z" stroke="black" stroke-opacity="0.1" stroke-width="0.33516"/>
<path d="M324.595 360.06C324.451 360.094 324.303 360.03 324.228 359.903L308.411 332.812C308.298 332.618 308.405 332.369 308.624 332.317L320.018 329.631C320.158 329.598 320.304 329.659 320.38 329.781L336.995 356.684C337.115 356.878 337.009 357.134 336.786 357.186L324.595 360.06Z" fill="#D9D9D9"/>
<path d="M324.595 360.06C324.451 360.094 324.303 360.03 324.228 359.903L308.411 332.812C308.298 332.618 308.405 332.369 308.624 332.317L320.018 329.631C320.158 329.598 320.304 329.659 320.38 329.781L336.995 356.684C337.115 356.878 337.009 357.134 336.786 357.186L324.595 360.06Z" fill="url(#paint13_linear_527_4248)" fill-opacity="0.5"/>
<path d="M324.373 359.818L308.556 332.728C308.499 332.631 308.553 332.506 308.662 332.48L320.056 329.794C320.127 329.778 320.199 329.808 320.237 329.869L336.852 356.772C336.912 356.869 336.859 356.997 336.748 357.023L324.556 359.897C324.485 359.914 324.41 359.882 324.373 359.818Z" stroke="black" stroke-opacity="0.1" stroke-width="0.33516"/>
<path d="M303.816 379.031C303.654 379.179 303.397 379.136 303.293 378.943L289.915 354.001C289.85 353.879 289.866 353.729 289.956 353.624L307.876 332.778C308.026 332.603 308.304 332.628 308.42 332.827L324.22 359.896C324.299 360.032 324.273 360.205 324.157 360.311L303.816 379.031Z" fill="url(#paint14_linear_527_4248)" fill-opacity="0.5"/>
<path d="M303.441 378.864L290.063 353.922C290.03 353.86 290.038 353.786 290.083 353.733L308.003 332.887C308.078 332.8 308.217 332.812 308.275 332.912L324.075 359.98C324.115 360.048 324.102 360.135 324.044 360.188L303.702 378.908C303.622 378.982 303.493 378.96 303.441 378.864Z" stroke="black" stroke-opacity="0.1" stroke-width="0.33516"/>
</g>
<g filter="url(#filter5_d_527_4248)">
<path d="M176.886 14.8625C176.933 14.5209 177.403 14.4641 177.53 14.7848L187.705 40.518C187.726 40.5716 187.733 40.6297 187.725 40.6868L185.97 53.4938C185.922 53.8429 185.437 53.8912 185.322 53.5583L175.494 25.2937C175.476 25.2437 175.471 25.1904 175.478 25.1381L176.886 14.8625Z" fill="#D9D9D9"/>
<path d="M176.886 14.8625C176.933 14.5209 177.403 14.4641 177.53 14.7848L187.705 40.518C187.726 40.5716 187.733 40.6297 187.725 40.6868L185.97 53.4938C185.922 53.8429 185.437 53.8912 185.322 53.5583L175.494 25.2937C175.476 25.2437 175.471 25.1904 175.478 25.1381L176.886 14.8625Z" fill="url(#paint15_linear_527_4248)" fill-opacity="0.5"/>
<path d="M177.374 14.8464L187.549 40.5796C187.559 40.6064 187.563 40.6355 187.559 40.664L185.804 53.471C185.78 53.6456 185.538 53.6697 185.48 53.5033L175.652 25.2386C175.643 25.2137 175.641 25.187 175.644 25.1608L177.052 14.8853C177.075 14.7144 177.31 14.6861 177.374 14.8464Z" stroke="black" stroke-opacity="0.1" stroke-width="0.33516"/>
<path d="M187.681 41.0114C187.701 40.8655 187.814 40.7497 187.96 40.7261L218.925 35.7037C219.147 35.6677 219.341 35.8569 219.311 36.0801L217.721 47.678C217.702 47.8209 217.593 47.9353 217.451 47.9619L186.375 53.7963C186.15 53.8385 185.95 53.648 185.981 53.4214L187.681 41.0114Z" fill="#D9D9D9"/>
<path d="M187.681 41.0114C187.701 40.8655 187.814 40.7497 187.96 40.7261L218.925 35.7037C219.147 35.6677 219.341 35.8569 219.311 36.0801L217.721 47.678C217.702 47.8209 217.593 47.9353 217.451 47.9619L186.375 53.7963C186.15 53.8385 185.95 53.648 185.981 53.4214L187.681 41.0114Z" fill="url(#paint16_linear_527_4248)" fill-opacity="0.5"/>
<path d="M187.986 40.8915L218.952 35.8692C219.063 35.8511 219.16 35.9457 219.145 36.0573L217.555 47.6553C217.546 47.7267 217.491 47.7839 217.42 47.7972L186.344 53.6316C186.231 53.6527 186.131 53.5574 186.147 53.4441L187.847 41.0342C187.857 40.9612 187.914 40.9033 187.986 40.8915Z" stroke="black" stroke-opacity="0.1" stroke-width="0.33516"/>
<path d="M177.447 14.8021C177.367 14.5984 177.5 14.3736 177.717 14.3464L205.801 10.8276C205.938 10.8104 206.072 10.8795 206.138 11.0016L219.15 35.2169C219.258 35.4197 219.135 35.6695 218.908 35.7064L187.969 40.7209C187.814 40.7461 187.662 40.6597 187.604 40.5132L177.447 14.8021Z" fill="url(#paint17_linear_527_4248)" fill-opacity="0.5"/>
<path d="M177.738 14.5127L205.822 10.9939C205.891 10.9853 205.957 11.0199 205.99 11.0809L219.002 35.2962C219.056 35.3976 218.995 35.5225 218.881 35.541L187.942 40.5555C187.865 40.5681 187.789 40.5249 187.76 40.4516L177.603 14.7405C177.563 14.6387 177.629 14.5263 177.738 14.5127Z" stroke="black" stroke-opacity="0.1" stroke-width="0.33516"/>
</g>
<g filter="url(#filter6_d_527_4248)">
<path d="M335.833 346.927C335.862 346.583 336.328 346.502 336.472 346.815L348.012 371.965C348.036 372.018 348.046 372.075 348.042 372.133L346.976 385.015C346.947 385.367 346.466 385.441 346.332 385.115L335.002 357.418C334.982 357.369 334.974 357.316 334.978 357.263L335.833 346.927Z" fill="#D9D9D9"/>
<path d="M335.833 346.927C335.862 346.583 336.328 346.502 336.472 346.815L348.012 371.965C348.036 372.018 348.046 372.075 348.042 372.133L346.976 385.015C346.947 385.367 346.466 385.441 346.332 385.115L335.002 357.418C334.982 357.369 334.974 357.316 334.978 357.263L335.833 346.927Z" fill="url(#paint18_linear_527_4248)" fill-opacity="0.5"/>
<path d="M336.319 346.885L347.86 372.035C347.872 372.061 347.877 372.09 347.875 372.119L346.809 385.002C346.795 385.177 346.554 385.214 346.487 385.051L335.157 357.354C335.147 357.33 335.143 357.304 335.145 357.277L336 346.941C336.014 346.769 336.248 346.728 336.319 346.885Z" stroke="black" stroke-opacity="0.1" stroke-width="0.33516"/>
<path d="M348.015 372.459C348.027 372.312 348.134 372.191 348.278 372.159L378.929 365.483C379.149 365.435 379.353 365.614 379.335 365.839L378.37 377.505C378.358 377.649 378.255 377.769 378.115 377.803L347.396 385.296C347.174 385.35 346.964 385.171 346.983 384.943L348.015 372.459Z" fill="#D9D9D9"/>
<path d="M348.015 372.459C348.027 372.312 348.134 372.191 348.278 372.159L378.929 365.483C379.149 365.435 379.353 365.614 379.335 365.839L378.37 377.505C378.358 377.649 378.255 377.769 378.115 377.803L347.396 385.296C347.174 385.35 346.964 385.171 346.983 384.943L348.015 372.459Z" fill="url(#paint19_linear_527_4248)" fill-opacity="0.5"/>
<path d="M348.314 372.323L378.965 365.647C379.075 365.623 379.177 365.712 379.168 365.825L378.203 377.491C378.197 377.563 378.146 377.623 378.076 377.64L347.357 385.133C347.246 385.16 347.141 385.07 347.15 384.956L348.182 372.473C348.188 372.4 348.242 372.339 348.314 372.323Z" stroke="black" stroke-opacity="0.1" stroke-width="0.33516"/>
<path d="M336.39 346.837C336.299 346.638 336.419 346.406 336.635 346.367L364.49 341.347C364.626 341.323 364.763 341.384 364.835 341.503L379.127 364.985C379.247 365.182 379.137 365.438 378.912 365.487L348.287 372.154C348.133 372.187 347.977 372.109 347.911 371.966L336.39 346.837Z" fill="url(#paint20_linear_527_4248)" fill-opacity="0.5"/>
<path d="M336.665 346.532L364.519 341.512C364.588 341.5 364.656 341.531 364.692 341.59L378.984 365.072C379.044 365.171 378.989 365.299 378.877 365.323L348.251 371.99C348.174 372.007 348.096 371.968 348.063 371.896L336.542 346.767C336.496 346.667 336.557 346.552 336.665 346.532Z" stroke="black" stroke-opacity="0.1" stroke-width="0.33516"/>
</g>
<g filter="url(#filter7_d_527_4248)">
<path d="M164.833 165.927C164.862 165.583 165.328 165.502 165.472 165.815L177.013 190.965C177.037 191.018 177.047 191.075 177.042 191.133L175.977 204.015C175.948 204.367 175.466 204.441 175.332 204.115L164.002 176.418C163.982 176.369 163.974 176.316 163.979 176.263L164.833 165.927Z" fill="#D9D9D9"/>
<path d="M164.833 165.927C164.862 165.583 165.328 165.502 165.472 165.815L177.013 190.965C177.037 191.018 177.047 191.075 177.042 191.133L175.977 204.015C175.948 204.367 175.466 204.441 175.332 204.115L164.002 176.418C163.982 176.369 163.974 176.316 163.979 176.263L164.833 165.927Z" fill="url(#paint21_linear_527_4248)" fill-opacity="0.5"/>
<path d="M165.32 165.885L176.86 191.035C176.872 191.061 176.877 191.09 176.875 191.119L175.81 204.002C175.795 204.177 175.554 204.214 175.488 204.051L164.158 176.354C164.148 176.33 164.143 176.304 164.146 176.277L165 165.941C165.015 165.769 165.248 165.728 165.32 165.885Z" stroke="black" stroke-opacity="0.1" stroke-width="0.33516"/>
<path d="M177.015 191.459C177.027 191.312 177.134 191.191 177.278 191.159L207.929 184.483C208.149 184.435 208.353 184.614 208.335 184.839L207.37 196.505C207.358 196.649 207.255 196.769 207.115 196.803L176.396 204.296C176.174 204.35 175.964 204.171 175.983 203.943L177.015 191.459Z" fill="#D9D9D9"/>
<path d="M177.015 191.459C177.027 191.312 177.134 191.191 177.278 191.159L207.929 184.483C208.149 184.435 208.353 184.614 208.335 184.839L207.37 196.505C207.358 196.649 207.255 196.769 207.115 196.803L176.396 204.296C176.174 204.35 175.964 204.171 175.983 203.943L177.015 191.459Z" fill="url(#paint22_linear_527_4248)" fill-opacity="0.5"/>
<path d="M177.314 191.323L207.965 184.647C208.075 184.623 208.177 184.712 208.168 184.825L207.203 196.491C207.197 196.563 207.146 196.623 207.076 196.64L176.357 204.133C176.246 204.16 176.141 204.07 176.15 203.956L177.182 191.473C177.188 191.4 177.242 191.339 177.314 191.323Z" stroke="black" stroke-opacity="0.1" stroke-width="0.33516"/>
<path d="M165.39 165.837C165.299 165.638 165.419 165.406 165.635 165.367L193.49 160.347C193.626 160.323 193.763 160.384 193.835 160.503L208.127 183.985C208.247 184.182 208.137 184.438 207.912 184.487L177.287 191.154C177.133 191.187 176.977 191.109 176.911 190.966L165.39 165.837Z" fill="url(#paint23_linear_527_4248)" fill-opacity="0.5"/>
<path d="M165.665 165.532L193.519 160.512C193.588 160.5 193.656 160.531 193.692 160.59L207.984 184.072C208.044 184.171 207.989 184.299 207.877 184.323L177.251 190.99C177.174 191.007 177.096 190.968 177.063 190.896L165.542 165.767C165.496 165.667 165.557 165.552 165.665 165.532Z" stroke="black" stroke-opacity="0.1" stroke-width="0.33516"/>
</g>
<g filter="url(#filter8_d_527_4248)">
<path d="M59.7366 137.921C59.6904 137.579 60.1283 137.399 60.3361 137.674L77.0152 159.754C77.0499 159.8 77.0722 159.854 77.0799 159.911L78.8099 172.722C78.857 173.071 78.4025 173.247 78.2021 172.957L61.1811 148.345C61.151 148.301 61.1317 148.251 61.1246 148.199L59.7366 137.921Z" fill="#D9D9D9"/>
<path d="M59.7366 137.921C59.6904 137.579 60.1283 137.399 60.3361 137.674L77.0152 159.754C77.0499 159.8 77.0722 159.854 77.0799 159.911L78.8099 172.722C78.857 173.071 78.4025 173.247 78.2021 172.957L61.1811 148.345C61.151 148.301 61.1317 148.251 61.1246 148.199L59.7366 137.921Z" fill="url(#paint24_linear_527_4248)" fill-opacity="0.5"/>
<path d="M60.2024 137.775L76.8815 159.855C76.8988 159.878 76.91 159.905 76.9138 159.934L78.6438 172.744C78.6674 172.919 78.4401 173.007 78.3399 172.862L61.3189 148.249C61.3039 148.228 61.2942 148.203 61.2907 148.176L59.9026 137.898C59.8796 137.727 60.0985 137.637 60.2024 137.775Z" stroke="black" stroke-opacity="0.1" stroke-width="0.33516"/>
<path d="M77.1233 160.236C77.1036 160.09 77.1816 159.948 77.3154 159.887L105.814 146.775C106.019 146.681 106.256 146.812 106.286 147.035L107.853 158.636C107.872 158.779 107.798 158.918 107.668 158.982L79.2794 172.905C79.074 173.006 78.8303 172.876 78.7997 172.649L77.1233 160.236Z" fill="#D9D9D9"/>
<path d="M77.1233 160.236C77.1036 160.09 77.1816 159.948 77.3154 159.887L105.814 146.775C106.019 146.681 106.256 146.812 106.286 147.035L107.853 158.636C107.872 158.779 107.798 158.918 107.668 158.982L79.2794 172.905C79.074 173.006 78.8303 172.876 78.7997 172.649L77.1233 160.236Z" fill="url(#paint25_linear_527_4248)" fill-opacity="0.5"/>
<path d="M77.3854 160.039L105.884 146.928C105.986 146.88 106.105 146.946 106.12 147.057L107.687 158.658C107.696 158.73 107.659 158.799 107.594 158.831L79.2056 172.755C79.1029 172.805 78.9811 172.74 78.9658 172.627L77.2894 160.213C77.2796 160.14 77.3185 160.07 77.3854 160.039Z" stroke="black" stroke-opacity="0.1" stroke-width="0.33516"/>
<path d="M60.26 137.713C60.1281 137.538 60.1964 137.286 60.3985 137.201L86.522 126.309C86.6498 126.255 86.7973 126.286 86.8931 126.386L105.9 146.246C106.06 146.412 106.007 146.686 105.798 146.782L77.3233 159.879C77.1802 159.945 77.0106 159.902 76.9157 159.776L60.26 137.713Z" fill="url(#paint26_linear_527_4248)" fill-opacity="0.5"/>
<path d="M60.463 137.356L86.5865 126.463C86.6504 126.437 86.7241 126.452 86.772 126.502L105.779 146.362C105.859 146.445 105.833 146.582 105.728 146.63L77.2532 159.727C77.1817 159.76 77.0969 159.738 77.0495 159.675L60.3938 137.612C60.3278 137.524 60.362 137.398 60.463 137.356Z" stroke="black" stroke-opacity="0.1" stroke-width="0.33516"/>
</g>
<g filter="url(#filter9_d_527_4248)">
<path d="M256.737 193.921C256.69 193.579 257.128 193.399 257.336 193.674L274.015 215.754C274.05 215.8 274.072 215.854 274.08 215.911L275.81 228.722C275.857 229.071 275.402 229.247 275.202 228.957L258.181 204.345C258.151 204.301 258.132 204.251 258.125 204.199L256.737 193.921Z" fill="#D9D9D9"/>
<path d="M256.737 193.921C256.69 193.579 257.128 193.399 257.336 193.674L274.015 215.754C274.05 215.8 274.072 215.854 274.08 215.911L275.81 228.722C275.857 229.071 275.402 229.247 275.202 228.957L258.181 204.345C258.151 204.301 258.132 204.251 258.125 204.199L256.737 193.921Z" fill="url(#paint27_linear_527_4248)" fill-opacity="0.5"/>
<path d="M257.202 193.775L273.881 215.855C273.899 215.878 273.91 215.905 273.914 215.934L275.644 228.744C275.667 228.919 275.44 229.007 275.34 228.862L258.319 204.249C258.304 204.228 258.294 204.203 258.291 204.176L256.903 193.898C256.88 193.727 257.098 193.637 257.202 193.775Z" stroke="black" stroke-opacity="0.1" stroke-width="0.33516"/>
<path d="M274.124 216.236C274.104 216.09 274.182 215.948 274.316 215.887L302.814 202.775C303.019 202.681 303.256 202.812 303.286 203.035L304.853 214.636C304.872 214.779 304.798 214.918 304.669 214.982L276.28 228.905C276.074 229.006 275.831 228.876 275.8 228.649L274.124 216.236Z" fill="#D9D9D9"/>
<path d="M274.124 216.236C274.104 216.09 274.182 215.948 274.316 215.887L302.814 202.775C303.019 202.681 303.256 202.812 303.286 203.035L304.853 214.636C304.872 214.779 304.798 214.918 304.669 214.982L276.28 228.905C276.074 229.006 275.831 228.876 275.8 228.649L274.124 216.236Z" fill="url(#paint28_linear_527_4248)" fill-opacity="0.5"/>
<path d="M274.386 216.039L302.884 202.928C302.987 202.88 303.105 202.946 303.12 203.057L304.687 214.658C304.697 214.73 304.659 214.799 304.595 214.831L276.206 228.755C276.103 228.805 275.981 228.74 275.966 228.627L274.29 216.214C274.28 216.14 274.319 216.07 274.386 216.039Z" stroke="black" stroke-opacity="0.1" stroke-width="0.33516"/>
<path d="M257.26 193.713C257.128 193.538 257.196 193.286 257.399 193.201L283.522 182.309C283.65 182.255 283.797 182.286 283.893 182.386L302.9 202.246C303.06 202.412 303.007 202.686 302.798 202.782L274.323 215.879C274.18 215.945 274.011 215.902 273.916 215.776L257.26 193.713Z" fill="url(#paint29_linear_527_4248)" fill-opacity="0.5"/>
<path d="M257.463 193.356L283.586 182.463C283.65 182.437 283.724 182.452 283.772 182.502L302.779 202.362C302.859 202.445 302.833 202.582 302.728 202.63L274.253 215.727C274.182 215.76 274.097 215.738 274.049 215.675L257.394 193.612C257.328 193.524 257.362 193.398 257.463 193.356Z" stroke="black" stroke-opacity="0.1" stroke-width="0.33516"/>
</g>
<g filter="url(#filter10_d_527_4248)">
<path d="M161.575 327.982C161.575 327.637 162.033 327.517 162.202 327.817L175.776 351.931C175.804 351.981 175.819 352.038 175.819 352.096V365.022C175.819 365.375 175.345 365.488 175.185 365.174L161.611 338.505C161.587 338.458 161.575 338.406 161.575 338.353V327.982Z" fill="#D9D9D9"/>
<path d="M161.575 327.982C161.575 327.637 162.033 327.517 162.202 327.817L175.776 351.931C175.804 351.981 175.819 352.038 175.819 352.096V365.022C175.819 365.375 175.345 365.488 175.185 365.174L161.611 338.505C161.587 338.458 161.575 338.406 161.575 338.353V327.982Z" fill="url(#paint30_linear_527_4248)" fill-opacity="0.5"/>
<path d="M162.056 327.9L175.63 352.013C175.644 352.039 175.652 352.067 175.652 352.096V365.022C175.652 365.199 175.415 365.255 175.335 365.098L161.761 338.429C161.749 338.406 161.743 338.38 161.743 338.353V327.982C161.743 327.809 161.972 327.749 162.056 327.9Z" stroke="black" stroke-opacity="0.1" stroke-width="0.33516"/>
<path d="M175.819 352.423C175.819 352.276 175.915 352.146 176.056 352.103L206.053 342.923C206.268 342.858 206.486 343.019 206.486 343.244V354.95C206.486 355.095 206.394 355.223 206.257 355.268L176.26 365.267C176.043 365.34 175.819 365.178 175.819 364.949V352.423Z" fill="#D9D9D9"/>
<path d="M175.819 352.423C175.819 352.276 175.915 352.146 176.056 352.103L206.053 342.923C206.268 342.858 206.486 343.019 206.486 343.244V354.95C206.486 355.095 206.394 355.223 206.257 355.268L176.26 365.267C176.043 365.34 175.819 365.178 175.819 364.949V352.423Z" fill="url(#paint31_linear_527_4248)" fill-opacity="0.5"/>
<path d="M176.105 352.263L206.102 343.084C206.21 343.051 206.318 343.131 206.318 343.244V354.95C206.318 355.022 206.272 355.086 206.204 355.109L176.207 365.108C176.098 365.144 175.986 365.064 175.986 364.949V352.423C175.986 352.35 176.035 352.285 176.105 352.263Z" stroke="black" stroke-opacity="0.1" stroke-width="0.33516"/>
<path d="M162.122 327.846C162.014 327.655 162.116 327.414 162.327 327.358L189.673 320.059C189.807 320.024 189.949 320.074 190.031 320.186L206.209 342.411C206.345 342.597 206.256 342.861 206.036 342.928L176.065 352.096C175.914 352.143 175.752 352.078 175.675 351.94L162.122 327.846Z" fill="url(#paint32_linear_527_4248)" fill-opacity="0.5"/>
<path d="M162.37 327.52L189.717 320.221C189.784 320.203 189.855 320.228 189.895 320.284L206.074 342.509C206.142 342.602 206.097 342.735 205.987 342.768L176.016 351.936C175.94 351.959 175.859 351.927 175.821 351.858L162.268 327.764C162.214 327.668 162.265 327.548 162.37 327.52Z" stroke="black" stroke-opacity="0.1" stroke-width="0.33516"/>
</g>
<g filter="url(#filter11_d_527_4248)">
<path d="M19.0999 581.508C18.7596 581.564 18.5674 581.131 18.8368 580.915L40.454 563.641C40.499 563.605 40.5525 563.581 40.6094 563.572L53.3678 561.493C53.7156 561.436 53.904 561.886 53.6198 562.094L29.4807 579.78C29.4381 579.811 29.3887 579.832 29.3365 579.84L19.0999 581.508Z" fill="#D9D9D9"/>
<path d="M19.0999 581.508C18.7596 581.564 18.5674 581.131 18.8368 580.915L40.454 563.641C40.499 563.605 40.5525 563.581 40.6094 563.572L53.3678 561.493C53.7156 561.436 53.904 561.886 53.6198 562.094L29.4807 579.78C29.4381 579.811 29.3887 579.832 29.3365 579.84L19.0999 581.508Z" fill="url(#paint33_linear_527_4248)" fill-opacity="0.5"/>
<path d="M18.9414 581.046L40.5586 563.771C40.5811 563.753 40.6079 563.742 40.6363 563.737L53.3948 561.658C53.5687 561.63 53.6629 561.855 53.5207 561.959L29.3816 579.645C29.3603 579.66 29.3356 579.671 29.3096 579.675L19.073 581.343C18.9028 581.37 18.8067 581.154 18.9414 581.046Z" stroke="black" stroke-opacity="0.1" stroke-width="0.33516"/>
<path d="M40.9329 563.519C40.7874 563.543 40.6436 563.469 40.5784 563.337L26.6949 535.206C26.5952 535.004 26.7192 534.763 26.9416 534.727L38.4955 532.845C38.6379 532.821 38.7792 532.892 38.8462 533.02L53.5386 561.018C53.6449 561.221 53.5215 561.468 53.2957 561.505L40.9329 563.519Z" fill="#D9D9D9"/>
<path d="M40.9329 563.519C40.7874 563.543 40.6436 563.469 40.5784 563.337L26.6949 535.206C26.5952 535.004 26.7192 534.763 26.9416 534.727L38.4955 532.845C38.6379 532.821 38.7792 532.892 38.8462 533.02L53.5386 561.018C53.6449 561.221 53.5215 561.468 53.2957 561.505L40.9329 563.519Z" fill="url(#paint34_linear_527_4248)" fill-opacity="0.5"/>
<path d="M40.7287 563.262L26.8452 535.132C26.7953 535.031 26.8573 534.91 26.9685 534.892L38.5225 533.01C38.5937 532.998 38.6643 533.034 38.6978 533.097L53.3902 561.096C53.4434 561.197 53.3817 561.321 53.2688 561.339L40.9059 563.354C40.8332 563.365 40.7613 563.328 40.7287 563.262Z" stroke="black" stroke-opacity="0.1" stroke-width="0.33516"/>
<path d="M18.8777 580.99C18.7067 581.127 18.4526 581.066 18.3629 580.866L6.76197 555.049C6.70519 554.923 6.73199 554.774 6.82942 554.676L26.1635 535.134C26.3255 534.971 26.6004 535.015 26.7023 535.222L40.5706 563.329C40.6402 563.47 40.6022 563.641 40.4791 563.739L18.8777 580.99Z" fill="url(#paint35_linear_527_4248)" fill-opacity="0.5"/>
<path d="M18.5157 580.797L6.91482 554.98C6.88643 554.917 6.89984 554.843 6.94855 554.794L26.2826 535.252C26.3636 535.17 26.5011 535.193 26.552 535.296L40.4203 563.403C40.4551 563.474 40.4361 563.559 40.3746 563.608L18.7732 580.859C18.6876 580.928 18.5606 580.897 18.5157 580.797Z" stroke="black" stroke-opacity="0.1" stroke-width="0.33516"/>
</g>
<g filter="url(#filter12_d_527_4248)">
<path d="M409.523 537.737C409.868 537.738 409.987 538.196 409.686 538.365L385.547 551.893C385.497 551.921 385.44 551.936 385.382 551.936L372.456 551.911C372.103 551.911 371.99 551.437 372.305 551.277L398.999 537.754C399.047 537.73 399.099 537.718 399.152 537.718L409.523 537.737Z" fill="#D9D9D9"/>
<path d="M409.523 537.737C409.868 537.738 409.987 538.196 409.686 538.365L385.547 551.893C385.497 551.921 385.44 551.936 385.382 551.936L372.456 551.911C372.103 551.911 371.99 551.437 372.305 551.277L398.999 537.754C399.047 537.73 399.099 537.718 399.152 537.718L409.523 537.737Z" fill="url(#paint36_linear_527_4248)" fill-opacity="0.55"/>
<path d="M409.604 538.219L385.465 551.747C385.44 551.761 385.411 551.768 385.383 551.768L372.456 551.744C372.28 551.744 372.223 551.506 372.381 551.427L399.075 537.903C399.099 537.892 399.125 537.885 399.151 537.885L409.523 537.905C409.695 537.905 409.755 538.135 409.604 538.219Z" stroke="black" stroke-opacity="0.1" stroke-width="0.33516"/>
<path d="M385.055 551.935C385.202 551.936 385.332 552.032 385.375 552.173L394.497 582.187C394.563 582.403 394.401 582.62 394.176 582.62L382.469 582.598C382.325 582.597 382.197 582.505 382.152 582.368L372.21 552.352C372.138 552.135 372.3 551.911 372.529 551.912L385.055 551.935Z" fill="#D9D9D9"/>
<path d="M385.055 551.935C385.202 551.936 385.332 552.032 385.375 552.173L394.497 582.187C394.563 582.403 394.401 582.62 394.176 582.62L382.469 582.598C382.325 582.597 382.197 582.505 382.152 582.368L372.21 552.352C372.138 552.135 372.3 551.911 372.529 551.912L385.055 551.935Z" fill="url(#paint37_linear_527_4248)" fill-opacity="0.55"/>
<path d="M385.214 552.222L394.337 582.236C394.369 582.344 394.289 582.453 394.176 582.452L382.47 582.43C382.398 582.43 382.334 582.384 382.311 582.315L372.369 552.299C372.333 552.191 372.414 552.079 372.528 552.079L385.054 552.103C385.128 552.103 385.193 552.151 385.214 552.222Z" stroke="black" stroke-opacity="0.1" stroke-width="0.33516"/>
<path d="M409.658 538.285C409.849 538.178 410.09 538.28 410.146 538.491L417.392 565.851C417.428 565.985 417.377 566.127 417.265 566.208L395.01 582.345C394.823 582.48 394.559 582.391 394.492 582.171L385.381 552.182C385.335 552.031 385.401 551.869 385.538 551.792L409.658 538.285Z" fill="url(#paint38_linear_527_4248)" fill-opacity="0.55"/>
<path d="M409.984 538.534L417.23 565.894C417.248 565.961 417.223 566.032 417.167 566.073L394.911 582.209C394.818 582.276 394.686 582.232 394.653 582.122L385.541 552.133C385.519 552.058 385.551 551.977 385.62 551.938L409.74 538.431C409.835 538.377 409.956 538.428 409.984 538.534Z" stroke="black" stroke-opacity="0.1" stroke-width="0.33516"/>
</g>
<g filter="url(#filter13_d_527_4248)">
<path d="M427.036 600.353C427.028 600.698 426.567 600.807 426.405 600.503L413.407 576.073C413.38 576.022 413.367 575.965 413.368 575.908L413.675 562.985C413.684 562.633 414.16 562.53 414.312 562.848L427.249 589.832C427.272 589.879 427.283 589.932 427.282 589.984L427.036 600.353Z" fill="#D9D9D9"/>
<path d="M427.036 600.353C427.028 600.698 426.567 600.807 426.405 600.503L413.407 576.073C413.38 576.022 413.367 575.965 413.368 575.908L413.675 562.985C413.684 562.633 414.16 562.53 414.312 562.848L427.249 589.832C427.272 589.879 427.283 589.932 427.282 589.984L427.036 600.353Z" fill="url(#paint39_linear_527_4248)" fill-opacity="0.55"/>
<path d="M426.553 600.424L413.555 575.994C413.542 575.969 413.535 575.941 413.536 575.912L413.843 562.989C413.847 562.813 414.085 562.761 414.161 562.92L427.098 589.904C427.11 589.928 427.115 589.954 427.115 589.98L426.868 600.349C426.864 600.522 426.634 600.576 426.553 600.424Z" stroke="black" stroke-opacity="0.1" stroke-width="0.33516"/>
<path d="M413.376 575.58C413.372 575.728 413.273 575.855 413.131 575.895L382.925 584.359C382.708 584.42 382.494 584.254 382.499 584.029L382.777 572.326C382.781 572.181 382.876 572.056 383.014 572.013L413.24 562.73C413.458 562.662 413.679 562.829 413.673 563.058L413.376 575.58Z" fill="#D9D9D9"/>
<path d="M413.376 575.58C413.372 575.728 413.273 575.855 413.131 575.895L382.925 584.359C382.708 584.42 382.494 584.254 382.499 584.029L382.777 572.326C382.781 572.181 382.876 572.056 383.014 572.013L413.24 562.73C413.458 562.662 413.679 562.829 413.673 563.058L413.376 575.58Z" fill="url(#paint40_linear_527_4248)" fill-opacity="0.55"/>
<path d="M413.086 575.734L382.879 584.198C382.771 584.228 382.664 584.145 382.667 584.033L382.945 572.33C382.946 572.258 382.994 572.195 383.063 572.173L413.289 562.89C413.398 562.856 413.508 562.94 413.506 563.054L413.208 575.576C413.206 575.65 413.157 575.714 413.086 575.734Z" stroke="black" stroke-opacity="0.1" stroke-width="0.33516"/>
<path d="M426.486 600.476C426.589 600.669 426.481 600.908 426.269 600.959L398.757 607.606C398.622 607.639 398.481 607.585 398.402 607.471L382.756 584.868C382.625 584.679 382.72 584.417 382.942 584.355L413.122 575.901C413.274 575.859 413.435 575.928 413.509 576.067L426.486 600.476Z" fill="url(#paint41_linear_527_4248)" fill-opacity="0.55"/>
<path d="M426.229 600.796L398.717 607.443C398.65 607.46 398.58 607.433 398.54 607.376L382.894 584.773C382.829 584.678 382.876 584.547 382.987 584.516L413.168 576.063C413.243 576.041 413.324 576.076 413.361 576.145L426.338 600.555C426.389 600.651 426.336 600.771 426.229 600.796Z" stroke="black" stroke-opacity="0.1" stroke-width="0.33516"/>
</g>
<g filter="url(#filter14_d_527_4248)">
<path d="M307.14 604.575C306.804 604.655 306.581 604.237 306.835 604.003L327.161 585.227C327.204 585.188 327.255 585.16 327.311 585.147L339.889 582.161C340.231 582.08 340.452 582.515 340.183 582.743L317.37 602.109C317.33 602.143 317.282 602.168 317.231 602.18L307.14 604.575Z" fill="#D9D9D9"/>
<path d="M307.14 604.575C306.804 604.655 306.581 604.237 306.835 604.003L327.161 585.227C327.204 585.188 327.255 585.16 327.311 585.147L339.889 582.161C340.231 582.08 340.452 582.515 340.183 582.743L317.37 602.109C317.33 602.143 317.282 602.168 317.231 602.18L307.14 604.575Z" fill="url(#paint42_linear_527_4248)" fill-opacity="0.55"/>
<path d="M306.948 604.126L327.275 585.35C327.296 585.33 327.322 585.316 327.35 585.31L339.927 582.324C340.099 582.283 340.209 582.501 340.074 582.615L317.262 601.982C317.242 601.999 317.218 602.011 317.192 602.017L307.101 604.412C306.933 604.452 306.822 604.243 306.948 604.126Z" stroke="black" stroke-opacity="0.1" stroke-width="0.33516"/>
<path d="M327.63 585.071C327.487 585.105 327.338 585.042 327.264 584.914L311.404 557.849C311.29 557.654 311.397 557.405 311.616 557.353L323.006 554.649C323.146 554.616 323.292 554.676 323.368 554.799L340.025 581.675C340.145 581.87 340.04 582.125 339.817 582.178L327.63 585.071Z" fill="#D9D9D9"/>
<path d="M327.63 585.071C327.487 585.105 327.338 585.042 327.264 584.914L311.404 557.849C311.29 557.654 311.397 557.405 311.616 557.353L323.006 554.649C323.146 554.616 323.292 554.676 323.368 554.799L340.025 581.675C340.145 581.87 340.04 582.125 339.817 582.178L327.63 585.071Z" fill="url(#paint43_linear_527_4248)" fill-opacity="0.55"/>
<path d="M327.408 584.83L311.549 557.764C311.492 557.667 311.545 557.542 311.655 557.516L323.045 554.812C323.115 554.796 323.188 554.826 323.226 554.887L339.883 581.764C339.943 581.861 339.89 581.989 339.779 582.015L327.592 584.908C327.52 584.925 327.446 584.893 327.408 584.83Z" stroke="black" stroke-opacity="0.1" stroke-width="0.33516"/>
<path d="M306.881 604.075C306.72 604.223 306.462 604.18 306.358 603.987L292.941 579.066C292.875 578.944 292.892 578.794 292.982 578.689L310.869 557.815C311.019 557.64 311.296 557.665 311.413 557.864L327.255 584.907C327.335 585.043 327.309 585.216 327.193 585.323L306.881 604.075Z" fill="url(#paint44_linear_527_4248)" fill-opacity="0.55"/>
<path d="M306.506 603.908L293.089 578.987C293.056 578.926 293.064 578.851 293.109 578.798L310.996 557.924C311.071 557.837 311.21 557.849 311.268 557.948L327.111 584.992C327.15 585.06 327.138 585.147 327.08 585.2L306.767 603.952C306.687 604.026 306.558 604.004 306.506 603.908Z" stroke="black" stroke-opacity="0.1" stroke-width="0.33516"/>
</g>
<g filter="url(#filter15_d_527_4248)">
<path d="M199.895 430.958C200.156 430.733 200.546 431.001 200.429 431.325L191.027 457.351C191.008 457.405 190.975 457.454 190.931 457.491L181.14 465.931C180.873 466.161 180.477 465.877 180.611 465.55L191.948 437.856C191.968 437.808 191.999 437.764 192.039 437.73L199.895 430.958Z" fill="#D9D9D9"/>
<path d="M199.895 430.958C200.156 430.733 200.546 431.001 200.429 431.325L191.027 457.351C191.008 457.405 190.975 457.454 190.931 457.491L181.14 465.931C180.873 466.161 180.477 465.877 180.611 465.55L191.948 437.856C191.968 437.808 191.999 437.764 192.039 437.73L199.895 430.958Z" fill="url(#paint45_linear_527_4248)" fill-opacity="0.5"/>
<path d="M200.271 431.268L190.87 457.294C190.86 457.321 190.843 457.345 190.822 457.364L181.031 465.804C180.897 465.919 180.699 465.777 180.766 465.614L192.103 437.92C192.113 437.895 192.129 437.874 192.149 437.856L200.004 431.085C200.135 430.972 200.33 431.106 200.271 431.268Z" stroke="black" stroke-opacity="0.1" stroke-width="0.33516"/>
<path d="M190.683 457.705C190.794 457.609 190.956 457.597 191.08 457.676L217.619 474.403C217.809 474.523 217.829 474.793 217.659 474.94L208.792 482.583C208.683 482.677 208.526 482.691 208.402 482.617L181.243 466.426C181.046 466.308 181.022 466.033 181.195 465.884L190.683 457.705Z" fill="#D9D9D9"/>
<path d="M190.683 457.705C190.794 457.609 190.956 457.597 191.08 457.676L217.619 474.403C217.809 474.523 217.829 474.793 217.659 474.94L208.792 482.583C208.683 482.677 208.526 482.691 208.402 482.617L181.243 466.426C181.046 466.308 181.022 466.033 181.195 465.884L190.683 457.705Z" fill="url(#paint46_linear_527_4248)" fill-opacity="0.5"/>
<path d="M190.991 457.817L217.529 474.544C217.625 474.604 217.635 474.739 217.549 474.813L208.683 482.456C208.628 482.503 208.549 482.51 208.487 482.473L181.328 466.282C181.23 466.223 181.218 466.085 181.305 466.011L190.792 457.832C190.848 457.784 190.929 457.778 190.991 457.817Z" stroke="black" stroke-opacity="0.1" stroke-width="0.33516"/>
<path d="M200.355 431.284C200.43 431.078 200.678 430.997 200.859 431.121L224.242 447.068C224.357 447.146 224.412 447.286 224.38 447.421L218.11 474.186C218.057 474.41 217.799 474.516 217.605 474.393L191.091 457.678C190.958 457.594 190.901 457.429 190.955 457.281L200.355 431.284Z" fill="url(#paint47_linear_527_4248)" fill-opacity="0.5"/>
<path d="M200.765 431.259L224.148 447.206C224.205 447.245 224.233 447.316 224.217 447.383L217.946 474.148C217.92 474.26 217.791 474.313 217.694 474.252L191.181 457.536C191.114 457.494 191.086 457.412 191.112 457.338L200.513 431.341C200.55 431.238 200.674 431.197 200.765 431.259Z" stroke="black" stroke-opacity="0.1" stroke-width="0.33516"/>
</g>
<g filter="url(#filter16_d_527_4248)">
<path d="M137.584 555.38C137.253 555.285 137.263 554.812 137.598 554.732L164.508 548.284C164.564 548.271 164.623 548.272 164.678 548.288L177.11 551.83C177.449 551.927 177.429 552.414 177.083 552.481L147.715 558.228C147.663 558.238 147.61 558.236 147.559 558.222L137.584 555.38Z" fill="#D9D9D9"/>
<path d="M137.584 555.38C137.253 555.285 137.263 554.812 137.598 554.732L164.508 548.284C164.564 548.271 164.623 548.272 164.678 548.288L177.11 551.83C177.449 551.927 177.429 552.414 177.083 552.481L147.715 558.228C147.663 558.238 147.61 558.236 147.559 558.222L137.584 555.38Z" fill="url(#paint48_linear_527_4248)" fill-opacity="0.5"/>
<path d="M137.637 554.894L164.548 548.447C164.576 548.441 164.605 548.441 164.632 548.449L177.064 551.991C177.234 552.039 177.224 552.283 177.051 552.317L147.683 558.064C147.657 558.069 147.63 558.068 147.605 558.06L137.63 555.219C137.465 555.171 137.47 554.935 137.637 554.894Z" stroke="black" stroke-opacity="0.1" stroke-width="0.33516"/>
<path d="M164.994 548.378C164.852 548.337 164.753 548.209 164.75 548.062L164.142 516.698C164.137 516.472 164.352 516.307 164.569 516.369L175.827 519.576C175.966 519.616 176.064 519.74 176.07 519.884L177.467 551.473C177.477 551.701 177.26 551.872 177.04 551.81L164.994 548.378Z" fill="#D9D9D9"/>
<path d="M164.994 548.378C164.852 548.337 164.753 548.209 164.75 548.062L164.142 516.698C164.137 516.472 164.352 516.307 164.569 516.369L175.827 519.576C175.966 519.616 176.064 519.74 176.07 519.884L177.467 551.473C177.477 551.701 177.26 551.872 177.04 551.81L164.994 548.378Z" fill="url(#paint49_linear_527_4248)" fill-opacity="0.5"/>
<path d="M164.918 548.058L164.309 516.694C164.307 516.582 164.414 516.499 164.523 516.53L175.781 519.738C175.85 519.757 175.899 519.819 175.903 519.891L177.299 551.48C177.305 551.594 177.196 551.68 177.086 551.649L165.04 548.216C164.969 548.196 164.919 548.132 164.918 548.058Z" stroke="black" stroke-opacity="0.1" stroke-width="0.33516"/>
<path d="M137.604 554.817C137.391 554.868 137.187 554.704 137.191 554.485L137.664 526.186C137.667 526.047 137.754 525.924 137.884 525.877L163.691 516.407C163.908 516.328 164.137 516.485 164.142 516.715L164.747 548.052C164.75 548.209 164.643 548.348 164.49 548.384L137.604 554.817Z" fill="url(#paint50_linear_527_4248)" fill-opacity="0.5"/>
<path d="M137.358 554.488L137.832 526.188C137.833 526.119 137.877 526.058 137.942 526.034L163.749 516.564C163.857 516.525 163.972 516.603 163.974 516.718L164.579 548.055C164.581 548.134 164.527 548.203 164.451 548.221L137.565 554.654C137.458 554.679 137.356 554.597 137.358 554.488Z" stroke="black" stroke-opacity="0.1" stroke-width="0.33516"/>
</g>
<g filter="url(#filter17_d_527_4248)">
<path d="M237.454 518.147C237.782 518.04 238.038 518.439 237.804 518.693L219.063 539.052C219.024 539.094 218.975 539.126 218.92 539.143L206.626 543.137C206.291 543.246 206.036 542.83 206.285 542.581L227.457 521.432C227.494 521.395 227.54 521.367 227.59 521.351L237.454 518.147Z" fill="#D9D9D9"/>
<path d="M237.454 518.147C237.782 518.04 238.038 518.439 237.804 518.693L219.063 539.052C219.024 539.094 218.975 539.126 218.92 539.143L206.626 543.137C206.291 543.246 206.036 542.83 206.285 542.581L227.457 521.432C227.494 521.395 227.54 521.367 227.59 521.351L237.454 518.147Z" fill="url(#paint51_linear_527_4248)" fill-opacity="0.5"/>
<path d="M237.681 518.579L218.94 538.938C218.92 538.959 218.896 538.975 218.868 538.984L206.574 542.977C206.406 543.032 206.279 542.824 206.404 542.699L227.575 521.551C227.594 521.532 227.617 521.518 227.642 521.51L237.506 518.306C237.67 518.253 237.798 518.452 237.681 518.579Z" stroke="black" stroke-opacity="0.1" stroke-width="0.33516"/>
<path d="M218.609 539.245C218.749 539.199 218.902 539.251 218.987 539.371L236.984 565.066C237.113 565.25 237.027 565.507 236.813 565.577L225.679 569.193C225.542 569.237 225.391 569.189 225.306 569.073L206.529 543.632C206.393 543.448 206.478 543.185 206.695 543.114L218.609 539.245Z" fill="#D9D9D9"/>
<path d="M218.609 539.245C218.749 539.199 218.902 539.251 218.987 539.371L236.984 565.066C237.113 565.25 237.027 565.507 236.813 565.577L225.679 569.193C225.542 569.237 225.391 569.189 225.306 569.073L206.529 543.632C206.393 543.448 206.478 543.185 206.695 543.114L218.609 539.245Z" fill="url(#paint52_linear_527_4248)" fill-opacity="0.5"/>
<path d="M218.849 539.468L236.846 565.162C236.911 565.254 236.868 565.382 236.761 565.417L225.627 569.033C225.558 569.056 225.483 569.032 225.44 568.974L206.664 543.533C206.596 543.441 206.638 543.309 206.747 543.274L218.66 539.404C218.731 539.382 218.807 539.407 218.849 539.468Z" stroke="black" stroke-opacity="0.1" stroke-width="0.33516"/>
<path d="M237.753 518.625C237.901 518.464 238.161 518.486 238.28 518.67L253.67 542.424C253.745 542.54 253.741 542.691 253.66 542.803L237.519 565.056C237.384 565.242 237.106 565.24 236.974 565.051L218.995 539.378C218.905 539.249 218.917 539.074 219.023 538.958L237.753 518.625Z" fill="url(#paint53_linear_527_4248)" fill-opacity="0.5"/>
<path d="M238.14 518.761L253.529 542.515C253.567 542.573 253.565 542.649 253.524 542.705L237.384 564.957C237.316 565.05 237.177 565.049 237.111 564.955L219.133 539.281C219.088 539.217 219.093 539.13 219.147 539.072L237.876 518.739C237.95 518.658 238.08 518.669 238.14 518.761Z" stroke="black" stroke-opacity="0.1" stroke-width="0.33516"/>
</g>
<g filter="url(#filter18_d_527_4248)">
<path d="M46.9692 570.422C46.7436 570.161 47.0114 569.771 47.336 569.887L73.3789 579.241C73.4331 579.261 73.4814 579.294 73.5191 579.337L81.9771 589.113C82.2077 589.379 81.9236 589.776 81.5973 589.643L53.8825 578.357C53.8336 578.337 53.79 578.305 53.7554 578.265L46.9692 570.422Z" fill="#D9D9D9"/>
<path d="M46.9692 570.422C46.7436 570.161 47.0114 569.771 47.336 569.887L73.3789 579.241C73.4331 579.261 73.4814 579.294 73.5191 579.337L81.9771 589.113C82.2077 589.379 81.9236 589.776 81.5973 589.643L53.8825 578.357C53.8336 578.337 53.79 578.305 53.7554 578.265L46.9692 570.422Z" fill="url(#paint54_linear_527_4248)" fill-opacity="0.5"/>
<path d="M47.2793 570.045L73.3222 579.399C73.3493 579.409 73.3735 579.425 73.3923 579.447L81.8504 589.223C81.9657 589.356 81.8236 589.554 81.6605 589.487L53.9457 578.201C53.9212 578.191 53.8995 578.176 53.8822 578.156L47.0959 570.313C46.9831 570.182 47.117 569.987 47.2793 570.045Z" stroke="black" stroke-opacity="0.1" stroke-width="0.33516"/>
<path d="M73.7333 579.585C73.6369 579.474 73.6245 579.313 73.7029 579.188L90.3811 552.619C90.5008 552.428 90.771 552.407 90.9184 552.578L98.578 561.43C98.6723 561.54 98.6863 561.697 98.6127 561.821L82.4708 589.01C82.354 589.206 82.0788 589.231 81.9291 589.058L73.7333 579.585Z" fill="#D9D9D9"/>
<path d="M73.7333 579.585C73.6369 579.474 73.6245 579.313 73.7029 579.188L90.3811 552.619C90.5008 552.428 90.771 552.407 90.9184 552.578L98.578 561.43C98.6723 561.54 98.6863 561.697 98.6127 561.821L82.4708 589.01C82.354 589.206 82.0788 589.231 81.9291 589.058L73.7333 579.585Z" fill="url(#paint55_linear_527_4248)" fill-opacity="0.5"/>
<path d="M73.8448 579.277L90.523 552.708C90.5829 552.613 90.718 552.602 90.7917 552.688L98.4512 561.54C98.4984 561.595 98.5054 561.673 98.4686 561.735L82.3267 588.924C82.2683 589.022 82.1307 589.035 82.0558 588.948L73.86 579.476C73.8118 579.42 73.8056 579.339 73.8448 579.277Z" stroke="black" stroke-opacity="0.1" stroke-width="0.33516"/>
<path d="M47.2939 569.962C47.0879 569.887 47.007 569.639 47.1301 569.458L63.0345 546.046C63.1123 545.931 63.2526 545.876 63.3875 545.907L90.164 552.129C90.3883 552.181 90.4945 552.438 90.372 552.633L73.7055 579.177C73.6218 579.311 73.4565 579.368 73.3083 579.314L47.2939 569.962Z" fill="url(#paint56_linear_527_4248)" fill-opacity="0.5"/>
<path d="M47.2687 569.552L63.1731 546.14C63.212 546.082 63.2822 546.055 63.3496 546.071L90.1261 552.292C90.2382 552.318 90.2913 552.447 90.2301 552.544L73.5636 579.088C73.5217 579.155 73.4391 579.183 73.365 579.157L47.3506 569.804C47.2476 569.767 47.2072 569.643 47.2687 569.552Z" stroke="black" stroke-opacity="0.1" stroke-width="0.33516"/>
</g>
</g>
<defs>
<filter id="filter0_d_527_4248" x="-2.26356" y="348" width="70.2429" height="71.9177" filterUnits="userSpaceOnUse" color-interpolation-filters="sRGB">
<feFlood flood-opacity="0" result="BackgroundImageFix"/>
<feColorMatrix in="SourceAlpha" type="matrix" values="0 0 0 0 0 0 0 0 0 0 0 0 0 0 0 0 0 0 127 0" result="hardAlpha"/>
<feOffset dy="6.0155"/>
<feGaussianBlur stdDeviation="2.63178"/>
<feComposite in2="hardAlpha" operator="out"/>
<feColorMatrix type="matrix" values="0 0 0 0 0 0 0 0 0 0 0 0 0 0 0 0 0 0 0.15 0"/>
<feBlend mode="normal" in2="BackgroundImageFix" result="effect1_dropShadow_527_4248"/>
<feBlend mode="normal" in="SourceGraphic" in2="effect1_dropShadow_527_4248" result="shape"/>
</filter>
<filter id="filter1_d_527_4248" x="56.7367" y="46" width="66.5867" height="68.5729" filterUnits="userSpaceOnUse" color-interpolation-filters="sRGB">
<feFlood flood-opacity="0" result="BackgroundImageFix"/>
<feColorMatrix in="SourceAlpha" type="matrix" values="0 0 0 0 0 0 0 0 0 0 0 0 0 0 0 0 0 0 127 0" result="hardAlpha"/>
<feOffset dy="6.0155"/>
<feGaussianBlur stdDeviation="2.63178"/>
<feComposite in2="hardAlpha" operator="out"/>
<feColorMatrix type="matrix" values="0 0 0 0 0 0 0 0 0 0 0 0 0 0 0 0 0 0 0.15 0"/>
<feBlend mode="normal" in2="BackgroundImageFix" result="effect1_dropShadow_527_4248"/>
<feBlend mode="normal" in="SourceGraphic" in2="effect1_dropShadow_527_4248" result="shape"/>
</filter>
<filter id="filter2_d_527_4248" x="191.736" y="0" width="69.3621" height="69.0097" filterUnits="userSpaceOnUse" color-interpolation-filters="sRGB">
<feFlood flood-opacity="0" result="BackgroundImageFix"/>
<feColorMatrix in="SourceAlpha" type="matrix" values="0 0 0 0 0 0 0 0 0 0 0 0 0 0 0 0 0 0 127 0" result="hardAlpha"/>
<feOffset dy="6.0155"/>
<feGaussianBlur stdDeviation="2.63178"/>
<feComposite in2="hardAlpha" operator="out"/>
<feColorMatrix type="matrix" values="0 0 0 0 0 0 0 0 0 0 0 0 0 0 0 0 0 0 0.15 0"/>
<feBlend mode="normal" in2="BackgroundImageFix" result="effect1_dropShadow_527_4248"/>
<feBlend mode="normal" in="SourceGraphic" in2="effect1_dropShadow_527_4248" result="shape"/>
</filter>
<filter id="filter3_d_527_4248" x="343.736" y="31" width="69.3621" height="69.0097" filterUnits="userSpaceOnUse" color-interpolation-filters="sRGB">
<feFlood flood-opacity="0" result="BackgroundImageFix"/>
<feColorMatrix in="SourceAlpha" type="matrix" values="0 0 0 0 0 0 0 0 0 0 0 0 0 0 0 0 0 0 127 0" result="hardAlpha"/>
<feOffset dy="6.0155"/>
<feGaussianBlur stdDeviation="2.63178"/>
<feComposite in2="hardAlpha" operator="out"/>
<feColorMatrix type="matrix" values="0 0 0 0 0 0 0 0 0 0 0 0 0 0 0 0 0 0 0.15 0"/>
<feBlend mode="normal" in2="BackgroundImageFix" result="effect1_dropShadow_527_4248"/>
<feBlend mode="normal" in="SourceGraphic" in2="effect1_dropShadow_527_4248" result="shape"/>
</filter>
<filter id="filter4_d_527_4248" x="280.736" y="327" width="65.9358" height="65.3168" filterUnits="userSpaceOnUse" color-interpolation-filters="sRGB">
<feFlood flood-opacity="0" result="BackgroundImageFix"/>
<feColorMatrix in="SourceAlpha" type="matrix" values="0 0 0 0 0 0 0 0 0 0 0 0 0 0 0 0 0 0 127 0" result="hardAlpha"/>
<feOffset dy="6.0155"/>
<feGaussianBlur stdDeviation="2.63178"/>
<feComposite in2="hardAlpha" operator="out"/>
<feColorMatrix type="matrix" values="0 0 0 0 0 0 0 0 0 0 0 0 0 0 0 0 0 0 0.15 0"/>
<feBlend mode="normal" in2="BackgroundImageFix" result="effect1_dropShadow_527_4248"/>
<feBlend mode="normal" in="SourceGraphic" in2="effect1_dropShadow_527_4248" result="shape"/>
</filter>
<filter id="filter5_d_527_4248" x="166.737" y="7" width="60.992" height="63.3203" filterUnits="userSpaceOnUse" color-interpolation-filters="sRGB">
<feFlood flood-opacity="0" result="BackgroundImageFix"/>
<feColorMatrix in="SourceAlpha" type="matrix" values="0 0 0 0 0 0 0 0 0 0 0 0 0 0 0 0 0 0 127 0" result="hardAlpha"/>
<feOffset dy="6.0155"/>
<feGaussianBlur stdDeviation="2.63178"/>
<feComposite in2="hardAlpha" operator="out"/>
<feColorMatrix type="matrix" values="0 0 0 0 0 0 0 0 0 0 0 0 0 0 0 0 0 0 0.15 0"/>
<feBlend mode="normal" in2="BackgroundImageFix" result="effect1_dropShadow_527_4248"/>
<feBlend mode="normal" in="SourceGraphic" in2="effect1_dropShadow_527_4248" result="shape"/>
</filter>
<filter id="filter6_d_527_4248" x="327.736" y="339" width="58.7776" height="61.2145" filterUnits="userSpaceOnUse" color-interpolation-filters="sRGB">
<feFlood flood-opacity="0" result="BackgroundImageFix"/>
<feColorMatrix in="SourceAlpha" type="matrix" values="0 0 0 0 0 0 0 0 0 0 0 0 0 0 0 0 0 0 127 0" result="hardAlpha"/>
<feOffset dy="6.0155"/>
<feGaussianBlur stdDeviation="2.63178"/>
<feComposite in2="hardAlpha" operator="out"/>
<feColorMatrix type="matrix" values="0 0 0 0 0 0 0 0 0 0 0 0 0 0 0 0 0 0 0.15 0"/>
<feBlend mode="normal" in2="BackgroundImageFix" result="effect1_dropShadow_527_4248"/>
<feBlend mode="normal" in="SourceGraphic" in2="effect1_dropShadow_527_4248" result="shape"/>
</filter>
<filter id="filter7_d_527_4248" x="156.736" y="158" width="58.7774" height="61.2145" filterUnits="userSpaceOnUse" color-interpolation-filters="sRGB">
<feFlood flood-opacity="0" result="BackgroundImageFix"/>
<feColorMatrix in="SourceAlpha" type="matrix" values="0 0 0 0 0 0 0 0 0 0 0 0 0 0 0 0 0 0 127 0" result="hardAlpha"/>
<feOffset dy="6.0155"/>
<feGaussianBlur stdDeviation="2.63178"/>
<feComposite in2="hardAlpha" operator="out"/>
<feColorMatrix type="matrix" values="0 0 0 0 0 0 0 0 0 0 0 0 0 0 0 0 0 0 0.15 0"/>
<feBlend mode="normal" in2="BackgroundImageFix" result="effect1_dropShadow_527_4248"/>
<feBlend mode="normal" in="SourceGraphic" in2="effect1_dropShadow_527_4248" result="shape"/>
</filter>
<filter id="filter8_d_527_4248" x="53.7364" y="124" width="60.9148" height="63.2469" filterUnits="userSpaceOnUse" color-interpolation-filters="sRGB">
<feFlood flood-opacity="0" result="BackgroundImageFix"/>
<feColorMatrix in="SourceAlpha" type="matrix" values="0 0 0 0 0 0 0 0 0 0 0 0 0 0 0 0 0 0 127 0" result="hardAlpha"/>
<feOffset dy="6.0155"/>
<feGaussianBlur stdDeviation="2.63178"/>
<feComposite in2="hardAlpha" operator="out"/>
<feColorMatrix type="matrix" values="0 0 0 0 0 0 0 0 0 0 0 0 0 0 0 0 0 0 0.15 0"/>
<feBlend mode="normal" in2="BackgroundImageFix" result="effect1_dropShadow_527_4248"/>
<feBlend mode="normal" in="SourceGraphic" in2="effect1_dropShadow_527_4248" result="shape"/>
</filter>
<filter id="filter9_d_527_4248" x="250.736" y="180" width="60.9148" height="63.2469" filterUnits="userSpaceOnUse" color-interpolation-filters="sRGB">
<feFlood flood-opacity="0" result="BackgroundImageFix"/>
<feColorMatrix in="SourceAlpha" type="matrix" values="0 0 0 0 0 0 0 0 0 0 0 0 0 0 0 0 0 0 127 0" result="hardAlpha"/>
<feOffset dy="6.0155"/>
<feGaussianBlur stdDeviation="2.63178"/>
<feComposite in2="hardAlpha" operator="out"/>
<feColorMatrix type="matrix" values="0 0 0 0 0 0 0 0 0 0 0 0 0 0 0 0 0 0 0.15 0"/>
<feBlend mode="normal" in2="BackgroundImageFix" result="effect1_dropShadow_527_4248"/>
<feBlend mode="normal" in="SourceGraphic" in2="effect1_dropShadow_527_4248" result="shape"/>
</filter>
<filter id="filter10_d_527_4248" x="156.311" y="320" width="55.4385" height="57.6988" filterUnits="userSpaceOnUse" color-interpolation-filters="sRGB">
<feFlood flood-opacity="0" result="BackgroundImageFix"/>
<feColorMatrix in="SourceAlpha" type="matrix" values="0 0 0 0 0 0 0 0 0 0 0 0 0 0 0 0 0 0 127 0" result="hardAlpha"/>
<feOffset dy="6.0155"/>
<feGaussianBlur stdDeviation="2.63178"/>
<feComposite in2="hardAlpha" operator="out"/>
<feColorMatrix type="matrix" values="0 0 0 0 0 0 0 0 0 0 0 0 0 0 0 0 0 0 0.15 0"/>
<feBlend mode="normal" in2="BackgroundImageFix" result="effect1_dropShadow_527_4248"/>
<feBlend mode="normal" in="SourceGraphic" in2="effect1_dropShadow_527_4248" result="shape"/>
</filter>
<filter id="filter11_d_527_4248" x="-1.26356" y="531" width="63.5108" height="62.7397" filterUnits="userSpaceOnUse" color-interpolation-filters="sRGB">
<feFlood flood-opacity="0" result="BackgroundImageFix"/>
<feColorMatrix in="SourceAlpha" type="matrix" values="0 0 0 0 0 0 0 0 0 0 0 0 0 0 0 0 0 0 127 0" result="hardAlpha"/>
<feOffset dy="6.0155"/>
<feGaussianBlur stdDeviation="2.63178"/>
<feComposite in2="hardAlpha" operator="out"/>
<feColorMatrix type="matrix" values="0 0 0 0 0 0 0 0 0 0 0 0 0 0 0 0 0 0 0.15 0"/>
<feBlend mode="normal" in2="BackgroundImageFix" result="effect1_dropShadow_527_4248"/>
<feBlend mode="normal" in="SourceGraphic" in2="effect1_dropShadow_527_4248" result="shape"/>
</filter>
<filter id="filter12_d_527_4248" x="365.736" y="537.718" width="57.0315" height="56.2256" filterUnits="userSpaceOnUse" color-interpolation-filters="sRGB">
<feFlood flood-opacity="0" result="BackgroundImageFix"/>
<feColorMatrix in="SourceAlpha" type="matrix" values="0 0 0 0 0 0 0 0 0 0 0 0 0 0 0 0 0 0 127 0" result="hardAlpha"/>
<feOffset dy="6.0155"/>
<feGaussianBlur stdDeviation="2.63178"/>
<feComposite in2="hardAlpha" operator="out"/>
<feColorMatrix type="matrix" values="0 0 0 0 0 0 0 0 0 0 0 0 0 0 0 0 0 0 0.15 0"/>
<feBlend mode="normal" in2="BackgroundImageFix" result="effect1_dropShadow_527_4248"/>
<feBlend mode="normal" in="SourceGraphic" in2="effect1_dropShadow_527_4248" result="shape"/>
</filter>
<filter id="filter13_d_527_4248" x="376.683" y="560.859" width="56.1936" height="58.7444" filterUnits="userSpaceOnUse" color-interpolation-filters="sRGB">
<feFlood flood-opacity="0" result="BackgroundImageFix"/>
<feColorMatrix in="SourceAlpha" type="matrix" values="0 0 0 0 0 0 0 0 0 0 0 0 0 0 0 0 0 0 127 0" result="hardAlpha"/>
<feOffset dy="6.0155"/>
<feGaussianBlur stdDeviation="2.63178"/>
<feComposite in2="hardAlpha" operator="out"/>
<feColorMatrix type="matrix" values="0 0 0 0 0 0 0 0 0 0 0 0 0 0 0 0 0 0 0.15 0"/>
<feBlend mode="normal" in2="BackgroundImageFix" result="effect1_dropShadow_527_4248"/>
<feBlend mode="normal" in="SourceGraphic" in2="effect1_dropShadow_527_4248" result="shape"/>
</filter>
<filter id="filter14_d_527_4248" x="283.737" y="552" width="65.9871" height="65.3715" filterUnits="userSpaceOnUse" color-interpolation-filters="sRGB">
<feFlood flood-opacity="0" result="BackgroundImageFix"/>
<feColorMatrix in="SourceAlpha" type="matrix" values="0 0 0 0 0 0 0 0 0 0 0 0 0 0 0 0 0 0 127 0" result="hardAlpha"/>
<feOffset dy="6.0155"/>
<feGaussianBlur stdDeviation="2.63178"/>
<feComposite in2="hardAlpha" operator="out"/>
<feColorMatrix type="matrix" values="0 0 0 0 0 0 0 0 0 0 0 0 0 0 0 0 0 0 0.15 0"/>
<feBlend mode="normal" in2="BackgroundImageFix" result="effect1_dropShadow_527_4248"/>
<feBlend mode="normal" in="SourceGraphic" in2="effect1_dropShadow_527_4248" result="shape"/>
</filter>
<filter id="filter15_d_527_4248" x="165.736" y="426" width="74.7913" height="75.3507" filterUnits="userSpaceOnUse" color-interpolation-filters="sRGB">
<feFlood flood-opacity="0" result="BackgroundImageFix"/>
<feColorMatrix in="SourceAlpha" type="matrix" values="0 0 0 0 0 0 0 0 0 0 0 0 0 0 0 0 0 0 127 0" result="hardAlpha"/>
<feOffset dy="6.0155"/>
<feGaussianBlur stdDeviation="2.63178"/>
<feComposite in2="hardAlpha" operator="out"/>
<feColorMatrix type="matrix" values="0 0 0 0 0 0 0 0 0 0 0 0 0 0 0 0 0 0 0.15 0"/>
<feBlend mode="normal" in2="BackgroundImageFix" result="effect1_dropShadow_527_4248"/>
<feBlend mode="normal" in="SourceGraphic" in2="effect1_dropShadow_527_4248" result="shape"/>
</filter>
<filter id="filter16_d_527_4248" x="124.736" y="510" width="67.3845" height="66.8687" filterUnits="userSpaceOnUse" color-interpolation-filters="sRGB">
<feFlood flood-opacity="0" result="BackgroundImageFix"/>
<feColorMatrix in="SourceAlpha" type="matrix" values="0 0 0 0 0 0 0 0 0 0 0 0 0 0 0 0 0 0 127 0" result="hardAlpha"/>
<feOffset dy="6.0155"/>
<feGaussianBlur stdDeviation="2.63178"/>
<feComposite in2="hardAlpha" operator="out"/>
<feColorMatrix type="matrix" values="0 0 0 0 0 0 0 0 0 0 0 0 0 0 0 0 0 0 0.15 0"/>
<feBlend mode="normal" in2="BackgroundImageFix" result="effect1_dropShadow_527_4248"/>
<feBlend mode="normal" in="SourceGraphic" in2="effect1_dropShadow_527_4248" result="shape"/>
</filter>
<filter id="filter17_d_527_4248" x="195.736" y="516" width="68.4466" height="68.0147" filterUnits="userSpaceOnUse" color-interpolation-filters="sRGB">
<feFlood flood-opacity="0" result="BackgroundImageFix"/>
<feColorMatrix in="SourceAlpha" type="matrix" values="0 0 0 0 0 0 0 0 0 0 0 0 0 0 0 0 0 0 127 0" result="hardAlpha"/>
<feOffset dy="6.0155"/>
<feGaussianBlur stdDeviation="2.63178"/>
<feComposite in2="hardAlpha" operator="out"/>
<feColorMatrix type="matrix" values="0 0 0 0 0 0 0 0 0 0 0 0 0 0 0 0 0 0 0.15 0"/>
<feBlend mode="normal" in2="BackgroundImageFix" result="effect1_dropShadow_527_4248"/>
<feBlend mode="normal" in="SourceGraphic" in2="effect1_dropShadow_527_4248" result="shape"/>
</filter>
<filter id="filter18_d_527_4248" x="36.7364" y="535" width="74.6099" height="75.5496" filterUnits="userSpaceOnUse" color-interpolation-filters="sRGB">
<feFlood flood-opacity="0" result="BackgroundImageFix"/>
<feColorMatrix in="SourceAlpha" type="matrix" values="0 0 0 0 0 0 0 0 0 0 0 0 0 0 0 0 0 0 127 0" result="hardAlpha"/>
<feOffset dy="6.0155"/>
<feGaussianBlur stdDeviation="2.63178"/>
<feComposite in2="hardAlpha" operator="out"/>
<feColorMatrix type="matrix" values="0 0 0 0 0 0 0 0 0 0 0 0 0 0 0 0 0 0 0.15 0"/>
<feBlend mode="normal" in2="BackgroundImageFix" result="effect1_dropShadow_527_4248"/>
<feBlend mode="normal" in="SourceGraphic" in2="effect1_dropShadow_527_4248" result="shape"/>
</filter>
<linearGradient id="paint0_linear_527_4248" x1="11.9423" y1="369.642" x2="28.2657" y2="405.849" gradientUnits="userSpaceOnUse">
<stop stop-color="#424242"/>
<stop offset="1" stop-color="#B0B0B0"/>
</linearGradient>
<linearGradient id="paint1_linear_527_4248" x1="39.0255" y1="375.079" x2="48.3237" y2="395.703" gradientUnits="userSpaceOnUse">
<stop stop-color="#424242"/>
<stop offset="1" stop-color="#B0B0B0"/>
</linearGradient>
<linearGradient id="paint2_linear_527_4248" x1="23.3187" y1="357.161" x2="36.5427" y2="386.493" gradientUnits="userSpaceOnUse">
<stop stop-color="#424242"/>
<stop offset="1" stop-color="#B0B0B0"/>
</linearGradient>
<linearGradient id="paint3_linear_527_4248" x1="79.9418" y1="54.3743" x2="68.4996" y2="92.4069" gradientUnits="userSpaceOnUse">
<stop stop-color="#CBCBCB"/>
<stop offset="1" stop-color="#86867E" stop-opacity="0.62"/>
</linearGradient>
<linearGradient id="paint4_linear_527_4248" x1="96.8107" y1="76.2494" x2="90.2929" y2="97.9135" gradientUnits="userSpaceOnUse">
<stop stop-color="#CBCBCB"/>
<stop offset="1" stop-color="#86867E" stop-opacity="0.62"/>
</linearGradient>
<linearGradient id="paint5_linear_527_4248" x1="96.7167" y1="52.4212" x2="87.4471" y2="83.2324" gradientUnits="userSpaceOnUse">
<stop stop-color="#CBCBCB"/>
<stop offset="1" stop-color="#86867E" stop-opacity="0.62"/>
</linearGradient>
<linearGradient id="paint6_linear_527_4248" x1="236.651" y1="8.66525" x2="199.314" y2="22.2045" gradientUnits="userSpaceOnUse">
<stop stop-color="#636363"/>
<stop offset="1" stop-color="#373737" stop-opacity="0.77"/>
</linearGradient>
<linearGradient id="paint7_linear_527_4248" x1="229.182" y1="35.2607" x2="207.914" y2="42.9729" gradientUnits="userSpaceOnUse">
<stop stop-color="#636363"/>
<stop offset="1" stop-color="#373737" stop-opacity="0.77"/>
</linearGradient>
<linearGradient id="paint8_linear_527_4248" x1="248.237" y1="20.9533" x2="217.989" y2="31.9219" gradientUnits="userSpaceOnUse">
<stop stop-color="#636363"/>
<stop offset="1" stop-color="#373737" stop-opacity="0.77"/>
</linearGradient>
<linearGradient id="paint9_linear_527_4248" x1="388.651" y1="39.6653" x2="351.314" y2="53.2045" gradientUnits="userSpaceOnUse">
<stop stop-color="#FFF400"/>
<stop offset="1" stop-color="#FF7400"/>
</linearGradient>
<linearGradient id="paint10_linear_527_4248" x1="381.182" y1="66.2607" x2="359.914" y2="73.9729" gradientUnits="userSpaceOnUse">
<stop stop-color="#FFF400"/>
<stop offset="1" stop-color="#FF7400"/>
</linearGradient>
<linearGradient id="paint11_linear_527_4248" x1="400.237" y1="51.9533" x2="369.989" y2="62.9219" gradientUnits="userSpaceOnUse">
<stop stop-color="#FFF400"/>
<stop offset="1" stop-color="#FF7400"/>
</linearGradient>
<linearGradient id="paint12_linear_527_4248" x1="301.195" y1="372.894" x2="339.852" y2="363.781" gradientUnits="userSpaceOnUse">
<stop stop-color="#F2F2F2"/>
<stop offset="1" stop-color="white"/>
</linearGradient>
<linearGradient id="paint13_linear_527_4248" x1="311.701" y1="347.346" x2="333.721" y2="342.155" gradientUnits="userSpaceOnUse">
<stop stop-color="#F2F2F2"/>
<stop offset="1" stop-color="white"/>
</linearGradient>
<linearGradient id="paint14_linear_527_4248" x1="291.114" y1="359.344" x2="322.431" y2="351.962" gradientUnits="userSpaceOnUse">
<stop stop-color="#F2F2F2"/>
<stop offset="1" stop-color="white"/>
</linearGradient>
<linearGradient id="paint15_linear_527_4248" x1="184.116" y1="14.5625" x2="178.724" y2="53.9114" gradientUnits="userSpaceOnUse">
<stop stop-color="#FF7400"/>
<stop offset="1" stop-color="#FFF400"/>
</linearGradient>
<linearGradient id="paint16_linear_527_4248" x1="204.18" y1="33.5497" x2="201.109" y2="55.9636" gradientUnits="userSpaceOnUse">
<stop stop-color="#FF7400"/>
<stop offset="1" stop-color="#FFF400"/>
</linearGradient>
<linearGradient id="paint17_linear_527_4248" x1="200.384" y1="10.0256" x2="196.016" y2="41.9031" gradientUnits="userSpaceOnUse">
<stop stop-color="#FF7400"/>
<stop offset="1" stop-color="#FFF400"/>
</linearGradient>
<linearGradient id="paint18_linear_527_4248" x1="343.036" y1="346.24" x2="339.763" y2="385.821" gradientUnits="userSpaceOnUse">
<stop stop-color="#949494"/>
<stop offset="1" stop-color="#C2C2C2" stop-opacity="0"/>
</linearGradient>
<linearGradient id="paint19_linear_527_4248" x1="364.091" y1="364.123" x2="362.226" y2="386.67" gradientUnits="userSpaceOnUse">
<stop stop-color="#949494"/>
<stop offset="1" stop-color="#C2C2C2" stop-opacity="0"/>
</linearGradient>
<linearGradient id="paint20_linear_527_4248" x1="359.038" y1="340.837" x2="356.386" y2="372.903" gradientUnits="userSpaceOnUse">
<stop stop-color="#949494"/>
<stop offset="1" stop-color="#C2C2C2" stop-opacity="0"/>
</linearGradient>
<linearGradient id="paint21_linear_527_4248" x1="172.037" y1="165.24" x2="168.764" y2="204.821" gradientUnits="userSpaceOnUse">
<stop stop-color="#FFF400"/>
<stop offset="1" stop-color="#FF7400"/>
</linearGradient>
<linearGradient id="paint22_linear_527_4248" x1="193.091" y1="183.123" x2="191.226" y2="205.67" gradientUnits="userSpaceOnUse">
<stop stop-color="#FFF400"/>
<stop offset="1" stop-color="#FF7400"/>
</linearGradient>
<linearGradient id="paint23_linear_527_4248" x1="188.038" y1="159.837" x2="185.386" y2="191.903" gradientUnits="userSpaceOnUse">
<stop stop-color="#FFF400"/>
<stop offset="1" stop-color="#FF7400"/>
</linearGradient>
<linearGradient id="paint24_linear_527_4248" x1="66.6235" y1="135.7" x2="71.9388" y2="175.06" gradientUnits="userSpaceOnUse">
<stop stop-color="#FFF400"/>
<stop offset="1" stop-color="white"/>
</linearGradient>
<linearGradient id="paint25_linear_527_4248" x1="91.0299" y1="148.638" x2="94.0576" y2="171.058" gradientUnits="userSpaceOnUse">
<stop stop-color="#FFF400"/>
<stop offset="1" stop-color="white"/>
</linearGradient>
<linearGradient id="paint26_linear_527_4248" x1="81.0877" y1="126.983" x2="85.3937" y2="158.869" gradientUnits="userSpaceOnUse">
<stop stop-color="#FFF400"/>
<stop offset="1" stop-color="white"/>
</linearGradient>
<linearGradient id="paint27_linear_527_4248" x1="263.624" y1="191.7" x2="268.939" y2="231.06" gradientUnits="userSpaceOnUse">
<stop stop-color="#FFF400"/>
<stop offset="1" stop-color="#FFF400"/>
</linearGradient>
<linearGradient id="paint28_linear_527_4248" x1="288.03" y1="204.638" x2="291.058" y2="227.058" gradientUnits="userSpaceOnUse">
<stop stop-color="#FFF400"/>
<stop offset="1" stop-color="#FFF400"/>
</linearGradient>
<linearGradient id="paint29_linear_527_4248" x1="278.088" y1="182.983" x2="282.394" y2="214.869" gradientUnits="userSpaceOnUse">
<stop stop-color="#FFF400"/>
<stop offset="1" stop-color="#FFF400"/>
</linearGradient>
<linearGradient id="paint30_linear_527_4248" x1="168.697" y1="326.703" x2="168.697" y2="366.42" gradientUnits="userSpaceOnUse">
<stop stop-color="#FF7400"/>
<stop offset="1" stop-color="#F3B27C"/>
</linearGradient>
<linearGradient id="paint31_linear_527_4248" x1="191.152" y1="342.791" x2="191.152" y2="365.414" gradientUnits="userSpaceOnUse">
<stop stop-color="#FF7400"/>
<stop offset="1" stop-color="#F3B27C"/>
</linearGradient>
<linearGradient id="paint32_linear_527_4248" x1="184.198" y1="320" x2="184.198" y2="352.175" gradientUnits="userSpaceOnUse">
<stop stop-color="#FF7400"/>
<stop offset="1" stop-color="#F3B27C"/>
</linearGradient>
<linearGradient id="paint33_linear_527_4248" x1="16.6926" y1="574.684" x2="55.8923" y2="568.298" gradientUnits="userSpaceOnUse">
<stop stop-color="#13FFE3"/>
<stop offset="1" stop-color="#262626"/>
</linearGradient>
<linearGradient id="paint34_linear_527_4248" x1="28.9601" y1="549.934" x2="51.289" y2="546.296" gradientUnits="userSpaceOnUse">
<stop stop-color="#13FFE3"/>
<stop offset="1" stop-color="#262626"/>
</linearGradient>
<linearGradient id="paint35_linear_527_4248" x1="7.58396" y1="560.463" x2="39.3406" y2="555.289" gradientUnits="userSpaceOnUse">
<stop stop-color="#13FFE3"/>
<stop offset="1" stop-color="#262626"/>
</linearGradient>
<linearGradient id="paint36_linear_527_4248" x1="410.788" y1="544.862" x2="371.072" y2="544.787" gradientUnits="userSpaceOnUse">
<stop stop-color="#564C4C"/>
<stop offset="0.0001" stop-color="#EF6767"/>
<stop offset="0.9999" stop-color="#939393" stop-opacity="0.015625"/>
<stop offset="1" stop-color="#870C0C" stop-opacity="0"/>
</linearGradient>
<linearGradient id="paint37_linear_527_4248" x1="394.658" y1="567.287" x2="372.035" y2="567.244" gradientUnits="userSpaceOnUse">
<stop stop-color="#564C4C"/>
<stop offset="0.0001" stop-color="#EF6767"/>
<stop offset="0.9999" stop-color="#939393" stop-opacity="0.015625"/>
<stop offset="1" stop-color="#870C0C" stop-opacity="0"/>
</linearGradient>
<linearGradient id="paint38_linear_527_4248" x1="417.462" y1="560.376" x2="385.287" y2="560.315" gradientUnits="userSpaceOnUse">
<stop stop-color="#564C4C"/>
<stop offset="0.0001" stop-color="#EF6767"/>
<stop offset="0.9999" stop-color="#939393" stop-opacity="0.015625"/>
<stop offset="1" stop-color="#870C0C" stop-opacity="0"/>
</linearGradient>
<linearGradient id="paint39_linear_527_4248" x1="419.885" y1="601.462" x2="420.829" y2="561.757" gradientUnits="userSpaceOnUse">
<stop stop-color="#F90F0F"/>
<stop offset="0.9999" stop-color="#939393" stop-opacity="0.015625"/>
<stop offset="1" stop-color="#C2C2C2" stop-opacity="0"/>
</linearGradient>
<linearGradient id="paint40_linear_527_4248" x1="397.818" y1="584.846" x2="398.355" y2="562.229" gradientUnits="userSpaceOnUse">
<stop stop-color="#F90F0F"/>
<stop offset="0.9999" stop-color="#939393" stop-opacity="0.015625"/>
<stop offset="1" stop-color="#C2C2C2" stop-opacity="0"/>
</linearGradient>
<linearGradient id="paint41_linear_527_4248" x1="404.229" y1="607.795" x2="404.994" y2="575.629" gradientUnits="userSpaceOnUse">
<stop stop-color="#F90F0F"/>
<stop offset="0.9999" stop-color="#939393" stop-opacity="0.015625"/>
<stop offset="1" stop-color="#C2C2C2" stop-opacity="0"/>
</linearGradient>
<linearGradient id="paint42_linear_527_4248" x1="304.251" y1="597.941" x2="342.893" y2="588.768" gradientUnits="userSpaceOnUse">
<stop stop-color="#008C51"/>
<stop offset="1" stop-color="#F8F8F8"/>
</linearGradient>
<linearGradient id="paint43_linear_527_4248" x1="314.717" y1="572.377" x2="336.728" y2="567.152" gradientUnits="userSpaceOnUse">
<stop stop-color="#008C51"/>
<stop offset="1" stop-color="#F8F8F8"/>
</linearGradient>
<linearGradient id="paint44_linear_527_4248" x1="294.148" y1="584.407" x2="325.453" y2="576.976" gradientUnits="userSpaceOnUse">
<stop stop-color="#008C51"/>
<stop offset="1" stop-color="#F8F8F8"/>
</linearGradient>
<linearGradient id="paint45_linear_527_4248" x1="205.514" y1="435.517" x2="175.431" y2="461.449" gradientUnits="userSpaceOnUse">
<stop stop-color="#FFF400"/>
<stop offset="1" stop-color="#FF7400"/>
</linearGradient>
<linearGradient id="paint46_linear_527_4248" x1="207.99" y1="463.03" x2="190.855" y2="477.801" gradientUnits="userSpaceOnUse">
<stop stop-color="#FFF400"/>
<stop offset="1" stop-color="#FF7400"/>
</linearGradient>
<linearGradient id="paint47_linear_527_4248" x1="220.712" y1="442.882" x2="196.342" y2="463.89" gradientUnits="userSpaceOnUse">
<stop stop-color="#FFF400"/>
<stop offset="1" stop-color="#FF7400"/>
</linearGradient>
<linearGradient id="paint48_linear_527_4248" x1="138.306" y1="548.18" x2="176.503" y2="559.062" gradientUnits="userSpaceOnUse">
<stop stop-color="#FF2B2B"/>
<stop offset="1" stop-color="#FFF400"/>
</linearGradient>
<linearGradient id="paint49_linear_527_4248" x1="159.931" y1="530.991" x2="181.689" y2="537.19" gradientUnits="userSpaceOnUse">
<stop stop-color="#FF2B2B"/>
<stop offset="1" stop-color="#FFF400"/>
</linearGradient>
<linearGradient id="paint50_linear_527_4248" x1="136.107" y1="531.435" x2="167.051" y2="540.252" gradientUnits="userSpaceOnUse">
<stop stop-color="#FF2B2B"/>
<stop offset="1" stop-color="#FFF400"/>
</linearGradient>
<linearGradient id="paint51_linear_527_4248" x1="240.871" y1="524.526" x2="203.097" y2="536.795" gradientUnits="userSpaceOnUse">
<stop stop-color="#1B4DFF"/>
<stop offset="1" stop-color="#3F3F3F" stop-opacity="0"/>
</linearGradient>
<linearGradient id="paint52_linear_527_4248" x1="232.507" y1="550.853" x2="210.99" y2="557.842" gradientUnits="userSpaceOnUse">
<stop stop-color="#1B4DFF"/>
<stop offset="1" stop-color="#3F3F3F" stop-opacity="0"/>
</linearGradient>
<linearGradient id="paint53_linear_527_4248" x1="252.034" y1="537.198" x2="221.433" y2="547.137" gradientUnits="userSpaceOnUse">
<stop stop-color="#1B4DFF"/>
<stop offset="1" stop-color="#3F3F3F" stop-opacity="0"/>
</linearGradient>
<linearGradient id="paint54_linear_527_4248" x1="51.5185" y1="564.795" x2="77.5055" y2="594.83" gradientUnits="userSpaceOnUse">
<stop stop-color="#949494"/>
<stop offset="1" stop-color="#C2C2C2" stop-opacity="0"/>
</linearGradient>
<linearGradient id="paint55_linear_527_4248" x1="79.0263" y1="562.268" x2="93.829" y2="579.376" gradientUnits="userSpaceOnUse">
<stop stop-color="#949494"/>
<stop offset="1" stop-color="#C2C2C2" stop-opacity="0"/>
</linearGradient>
<linearGradient id="paint56_linear_527_4248" x1="58.8549" y1="549.583" x2="79.9076" y2="573.915" gradientUnits="userSpaceOnUse">
<stop stop-color="#949494"/>
<stop offset="1" stop-color="#C2C2C2" stop-opacity="0"/>
</linearGradient>
</defs>
</svg>
