<svg width="247" height="437" viewBox="0 0 247 437" fill="none" xmlns="http://www.w3.org/2000/svg">
<g opacity="0.5">
<g filter="url(#filter0_d_527_4202)">
<path d="M20.975 80.7352C20.8333 80.4208 21.2015 80.1231 21.4792 80.3275L43.7645 96.7316C43.8109 96.7657 43.8477 96.8113 43.8714 96.8638L49.1842 108.648C49.329 108.969 48.9436 109.268 48.6689 109.047L25.3334 90.3139C25.2922 90.2808 25.2594 90.2384 25.2377 90.1903L20.975 80.7352Z" fill="#D9D9D9"/>
<path d="M20.975 80.7352C20.8333 80.4208 21.2015 80.1231 21.4792 80.3275L43.7645 96.7316C43.8109 96.7657 43.8477 96.8113 43.8714 96.8638L49.1842 108.648C49.329 108.969 48.9436 109.268 48.6689 109.047L25.3334 90.3139C25.2922 90.2808 25.2594 90.2384 25.2377 90.1903L20.975 80.7352Z" fill="url(#paint0_linear_527_4202)" fill-opacity="0.5"/>
<path d="M21.3799 80.4625L43.6652 96.8666C43.6884 96.8836 43.7068 96.9064 43.7186 96.9326L49.0314 108.717C49.1039 108.878 48.9112 109.027 48.7738 108.917L25.4383 90.1832C25.4177 90.1667 25.4013 90.1455 25.3905 90.1214L21.1278 80.6663C21.0569 80.5091 21.241 80.3602 21.3799 80.4625Z" stroke="black" stroke-opacity="0.1" stroke-width="0.33516"/>
<path d="M44.0058 97.1625C43.9452 97.0282 43.9795 96.8701 44.0902 96.7729L67.6637 76.076C67.833 75.9273 68.0978 75.9847 68.1904 76.1901L73.0016 86.862C73.0609 86.9935 73.0294 87.1482 72.9234 87.246L49.6868 108.69C49.5187 108.845 49.2479 108.79 49.1539 108.582L44.0058 97.1625Z" fill="#D9D9D9"/>
<path d="M44.0058 97.1625C43.9452 97.0282 43.9795 96.8701 44.0902 96.7729L67.6637 76.076C67.833 75.9273 68.0978 75.9847 68.1904 76.1901L73.0016 86.862C73.0609 86.9935 73.0294 87.1482 72.9234 87.246L49.6868 108.69C49.5187 108.845 49.2479 108.79 49.1539 108.582L44.0058 97.1625Z" fill="url(#paint1_linear_527_4202)" fill-opacity="0.5"/>
<path d="M44.2008 96.8988L67.7743 76.2019C67.8589 76.1276 67.9913 76.1563 68.0376 76.259L72.8489 86.9308C72.8785 86.9966 72.8628 87.0739 72.8098 87.1229L49.5731 108.567C49.4891 108.645 49.3537 108.617 49.3067 108.513L44.1586 97.0936C44.1283 97.0265 44.1454 96.9474 44.2008 96.8988Z" stroke="black" stroke-opacity="0.1" stroke-width="0.33516"/>
<path d="M21.4178 80.3866C21.2415 80.2568 21.2351 79.9955 21.4047 79.8571L43.3348 61.9642C43.4422 61.8766 43.5923 61.8641 43.7127 61.9327L67.5958 75.5444C67.7959 75.6584 67.824 75.9355 67.651 76.0874L44.0959 96.7636C43.9776 96.8675 43.8028 96.875 43.676 96.7816L21.4178 80.3866Z" fill="url(#paint2_linear_527_4202)" fill-opacity="0.5"/>
<path d="M21.5107 79.9869L43.4408 62.094C43.4944 62.0503 43.5695 62.044 43.6297 62.0783L67.5129 75.69C67.6129 75.747 67.627 75.8855 67.5404 75.9615L43.9854 96.6377C43.9262 96.6896 43.8388 96.6933 43.7754 96.6466L21.5172 80.2517C21.4291 80.1868 21.4258 80.0561 21.5107 79.9869Z" stroke="black" stroke-opacity="0.1" stroke-width="0.33516"/>
</g>
<g filter="url(#filter1_d_527_4202)">
<path d="M187.753 102.547C187.853 102.217 188.326 102.234 188.401 102.57L194.453 129.572C194.465 129.628 194.463 129.687 194.446 129.742L190.722 142.121C190.621 142.458 190.134 142.43 190.072 142.084L184.756 112.635C184.747 112.583 184.75 112.529 184.765 112.479L187.753 102.547Z" fill="#D9D9D9"/>
<path d="M187.753 102.547C187.853 102.217 188.326 102.234 188.401 102.57L194.453 129.572C194.465 129.628 194.463 129.687 194.446 129.742L190.722 142.121C190.621 142.458 190.134 142.43 190.072 142.084L184.756 112.635C184.747 112.583 184.75 112.529 184.765 112.479L187.753 102.547Z" fill="url(#paint3_linear_527_4202)" fill-opacity="0.5"/>
<path d="M188.238 102.607L194.289 129.609C194.295 129.637 194.294 129.666 194.286 129.694L190.562 142.072C190.511 142.241 190.268 142.227 190.236 142.054L184.921 112.605C184.917 112.579 184.918 112.552 184.926 112.527L187.914 102.595C187.963 102.43 188.2 102.439 188.238 102.607Z" stroke="black" stroke-opacity="0.1" stroke-width="0.33516"/>
<path d="M194.352 130.056C194.395 129.915 194.524 129.818 194.671 129.817L226.041 129.669C226.266 129.668 226.428 129.885 226.364 130.101L222.991 141.311C222.949 141.449 222.824 141.545 222.68 141.549L191.074 142.482C190.846 142.489 190.678 142.27 190.743 142.051L194.352 130.056Z" fill="#D9D9D9"/>
<path d="M194.352 130.056C194.395 129.915 194.524 129.818 194.671 129.817L226.041 129.669C226.266 129.668 226.428 129.885 226.364 130.101L222.991 141.311C222.949 141.449 222.824 141.545 222.68 141.549L191.074 142.482C190.846 142.489 190.678 142.27 190.743 142.051L194.352 130.056Z" fill="url(#paint4_linear_527_4202)" fill-opacity="0.5"/>
<path d="M194.672 129.985L226.042 129.837C226.154 129.836 226.236 129.945 226.203 130.052L222.831 141.262C222.81 141.332 222.747 141.38 222.675 141.382L191.069 142.315C190.955 142.318 190.871 142.208 190.904 142.099L194.513 130.104C194.534 130.034 194.599 129.985 194.672 129.985Z" stroke="black" stroke-opacity="0.1" stroke-width="0.33516"/>
<path d="M188.316 102.574C188.268 102.361 188.435 102.159 188.654 102.166L216.943 103.055C217.082 103.06 217.203 103.149 217.249 103.28L226.338 129.223C226.415 129.44 226.254 129.668 226.024 129.669L194.682 129.814C194.524 129.814 194.387 129.705 194.353 129.552L188.316 102.574Z" fill="url(#paint5_linear_527_4202)" fill-opacity="0.5"/>
<path d="M188.648 102.334L216.938 103.223C217.007 103.225 217.068 103.27 217.091 103.335L226.18 129.279C226.218 129.387 226.138 129.501 226.023 129.502L194.681 129.646C194.602 129.646 194.534 129.592 194.517 129.515L188.48 102.538C188.456 102.431 188.539 102.33 188.648 102.334Z" stroke="black" stroke-opacity="0.1" stroke-width="0.33516"/>
</g>
<g filter="url(#filter2_d_527_4202)">
<path d="M223.679 19.2299C224.003 19.1124 224.272 19.5021 224.048 19.7636L206.006 40.7448C205.968 40.7885 205.92 40.8218 205.866 40.8414L193.713 45.2481C193.382 45.3682 193.114 44.9613 193.354 44.704L213.798 22.8517C213.835 22.8131 213.879 22.7836 213.929 22.7656L223.679 19.2299Z" fill="#D9D9D9"/>
<path d="M223.679 19.2299C224.003 19.1124 224.272 19.5021 224.048 19.7636L206.006 40.7448C205.968 40.7885 205.92 40.8218 205.866 40.8414L193.713 45.2481C193.382 45.3682 193.114 44.9613 193.354 44.704L213.798 22.8517C213.835 22.8131 213.879 22.7836 213.929 22.7656L223.679 19.2299Z" fill="url(#paint6_linear_527_4202)" fill-opacity="0.5"/>
<path d="M223.921 19.6543L205.879 40.6356C205.86 40.6574 205.836 40.674 205.809 40.6838L193.656 45.0905C193.491 45.1506 193.356 44.9472 193.477 44.8185L213.921 22.9662C213.939 22.9469 213.961 22.9321 213.986 22.9231L223.736 19.3875C223.899 19.3287 224.033 19.5236 223.921 19.6543Z" stroke="black" stroke-opacity="0.1" stroke-width="0.33516"/>
<path d="M205.558 40.9536C205.696 40.9033 205.851 40.9495 205.94 41.0672L224.795 66.138C224.931 66.3181 224.854 66.5777 224.642 66.6545L213.637 70.6452C213.501 70.6944 213.349 70.6513 213.26 70.5382L193.634 45.7467C193.492 45.5674 193.567 45.3016 193.782 45.2236L205.558 40.9536Z" fill="#D9D9D9"/>
<path d="M205.558 40.9536C205.696 40.9033 205.851 40.9495 205.94 41.0672L224.795 66.138C224.931 66.3181 224.854 66.5777 224.642 66.6545L213.637 70.6452C213.501 70.6944 213.349 70.6513 213.26 70.5382L193.634 45.7467C193.492 45.5674 193.567 45.3016 193.782 45.2236L205.558 40.9536Z" fill="url(#paint7_linear_527_4202)" fill-opacity="0.5"/>
<path d="M205.806 41.1679L224.661 66.2387C224.729 66.3288 224.691 66.4586 224.585 66.497L213.58 70.4877C213.512 70.5123 213.436 70.4907 213.391 70.4341L193.765 45.6427C193.694 45.553 193.732 45.4202 193.839 45.3812L205.615 41.1111C205.684 41.086 205.762 41.1091 205.806 41.1679Z" stroke="black" stroke-opacity="0.1" stroke-width="0.33516"/>
<path d="M223.994 19.6984C224.136 19.5325 224.397 19.5458 224.523 19.7254L240.706 42.9455C240.785 43.0592 240.787 43.2098 240.709 43.3247L225.331 66.1104C225.202 66.3012 224.923 66.3084 224.785 66.1243L205.949 41.0734C205.854 40.9476 205.86 40.7728 205.963 40.6534L223.994 19.6984Z" fill="url(#paint8_linear_527_4202)" fill-opacity="0.5"/>
<path d="M224.385 19.8212L240.569 43.0413C240.608 43.0982 240.609 43.1735 240.57 43.2309L225.192 66.0166C225.127 66.1121 224.988 66.1156 224.919 66.0236L206.083 40.9727C206.036 40.9098 206.038 40.8224 206.09 40.7627L224.121 19.8078C224.192 19.7248 224.323 19.7314 224.385 19.8212Z" stroke="black" stroke-opacity="0.1" stroke-width="0.33516"/>
</g>
<g filter="url(#filter3_d_527_4202)">
<path d="M94.8855 7.86251C94.9323 7.52087 95.4024 7.46409 95.5292 7.78478L105.704 33.518C105.725 33.5716 105.732 33.6297 105.725 33.6868L103.97 46.4938C103.922 46.8429 103.437 46.8912 103.321 46.5583L93.4931 18.2936C93.4757 18.2437 93.4704 18.1904 93.4776 18.1381L94.8855 7.86251Z" fill="#D9D9D9"/>
<path d="M94.8855 7.86251C94.9323 7.52087 95.4024 7.46409 95.5292 7.78478L105.704 33.518C105.725 33.5716 105.732 33.6297 105.725 33.6868L103.97 46.4938C103.922 46.8429 103.437 46.8912 103.321 46.5583L93.4931 18.2936C93.4757 18.2437 93.4704 18.1904 93.4776 18.1381L94.8855 7.86251Z" fill="url(#paint9_linear_527_4202)" fill-opacity="0.5"/>
<path d="M95.3734 7.84639L105.548 33.5796C105.559 33.6064 105.562 33.6355 105.559 33.664L103.804 46.471C103.78 46.6456 103.537 46.6697 103.479 46.5033L93.6513 18.2386C93.6427 18.2137 93.64 18.187 93.6436 18.1608L95.0515 7.88526C95.0749 7.71444 95.31 7.68605 95.3734 7.84639Z" stroke="black" stroke-opacity="0.1" stroke-width="0.33516"/>
<path d="M105.68 34.0114C105.7 33.8655 105.813 33.7497 105.959 33.7261L136.924 28.7037C137.146 28.6677 137.34 28.8569 137.31 29.0801L135.721 40.678C135.701 40.8209 135.592 40.9353 135.45 40.9619L104.374 46.7963C104.149 46.8385 103.949 46.648 103.98 46.4214L105.68 34.0114Z" fill="#D9D9D9"/>
<path d="M105.68 34.0114C105.7 33.8655 105.813 33.7497 105.959 33.7261L136.924 28.7037C137.146 28.6677 137.34 28.8569 137.31 29.0801L135.721 40.678C135.701 40.8209 135.592 40.9353 135.45 40.9619L104.374 46.7963C104.149 46.8385 103.949 46.648 103.98 46.4214L105.68 34.0114Z" fill="url(#paint10_linear_527_4202)" fill-opacity="0.5"/>
<path d="M105.986 33.8915L136.951 28.8692C137.062 28.8511 137.159 28.9457 137.144 29.0573L135.555 40.6553C135.545 40.7267 135.49 40.7839 135.42 40.7972L104.343 46.6316C104.231 46.6527 104.131 46.5574 104.146 46.4441L105.846 34.0342C105.856 33.9612 105.913 33.9033 105.986 33.8915Z" stroke="black" stroke-opacity="0.1" stroke-width="0.33516"/>
<path d="M95.4464 7.80209C95.3659 7.59844 95.4991 7.37361 95.7164 7.34639L123.8 3.82765C123.938 3.81042 124.072 3.87954 124.137 4.00157L137.149 28.2169C137.258 28.4197 137.134 28.6695 136.907 28.7064L105.969 33.7209C105.813 33.7461 105.661 33.6597 105.603 33.5132L95.4464 7.80209Z" fill="url(#paint11_linear_527_4202)" fill-opacity="0.5"/>
<path d="M95.7372 7.51267L123.821 3.99393C123.89 3.98532 123.957 4.01987 123.99 4.08089L137.001 28.2962C137.056 28.3976 136.994 28.5225 136.88 28.541L105.942 33.5555C105.864 33.5681 105.788 33.5249 105.759 33.4516L95.6022 7.74052C95.562 7.6387 95.6286 7.52628 95.7372 7.51267Z" stroke="black" stroke-opacity="0.1" stroke-width="0.33516"/>
</g>
<g filter="url(#filter4_d_527_4202)">
<path d="M157.322 257.089C157.591 257.305 157.398 257.738 157.058 257.682L129.754 253.183C129.697 253.174 129.644 253.15 129.599 253.114L119.515 245.026C119.24 244.805 119.448 244.364 119.793 244.436L149.09 250.534C149.142 250.544 149.19 250.567 149.231 250.6L157.322 257.089Z" fill="#D9D9D9"/>
<path d="M157.322 257.089C157.591 257.305 157.398 257.738 157.058 257.682L129.754 253.183C129.697 253.174 129.644 253.15 129.599 253.114L119.515 245.026C119.24 244.805 119.448 244.364 119.793 244.436L149.09 250.534C149.142 250.544 149.19 250.567 149.231 250.6L157.322 257.089Z" fill="url(#paint12_linear_527_4202)" fill-opacity="0.5"/>
<path d="M157.085 257.516L129.782 253.018C129.753 253.013 129.726 253.001 129.704 252.983L119.62 244.895C119.483 244.785 119.587 244.564 119.759 244.6L149.056 250.698C149.082 250.703 149.106 250.714 149.127 250.731L157.217 257.22C157.352 257.328 157.255 257.544 157.085 257.516Z" stroke="black" stroke-opacity="0.1" stroke-width="0.33516"/>
<path d="M129.344 252.909C129.459 253.001 129.5 253.157 129.445 253.294L117.838 282.437C117.754 282.647 117.492 282.716 117.316 282.575L108.185 275.25C108.072 275.16 108.03 275.008 108.08 274.873L119.048 245.217C119.128 245.002 119.394 244.928 119.572 245.071L129.344 252.909Z" fill="#D9D9D9"/>
<path d="M129.344 252.909C129.459 253.001 129.5 253.157 129.445 253.294L117.838 282.437C117.754 282.647 117.492 282.716 117.316 282.575L108.185 275.25C108.072 275.16 108.03 275.008 108.08 274.873L119.048 245.217C119.128 245.002 119.394 244.928 119.572 245.071L129.344 252.909Z" fill="url(#paint13_linear_527_4202)" fill-opacity="0.5"/>
<path d="M129.29 253.232L117.682 282.375C117.64 282.48 117.509 282.515 117.421 282.444L108.289 275.12C108.233 275.075 108.212 274.999 108.237 274.931L119.205 245.275C119.245 245.168 119.378 245.131 119.468 245.202L129.239 253.039C129.296 253.085 129.317 253.164 129.29 253.232Z" stroke="black" stroke-opacity="0.1" stroke-width="0.33516"/>
<path d="M157.086 257.601C157.302 257.637 157.426 257.866 157.338 258.067L145.922 283.966C145.866 284.092 145.738 284.172 145.599 284.165L118.14 282.88C117.91 282.869 117.759 282.635 117.844 282.421L129.445 253.305C129.503 253.159 129.655 253.073 129.811 253.098L157.086 257.601Z" fill="url(#paint14_linear_527_4202)" fill-opacity="0.5"/>
<path d="M157.185 257.999L145.768 283.898C145.74 283.961 145.676 284.001 145.607 283.998L118.148 282.713C118.033 282.707 117.957 282.59 118 282.483L129.6 253.367C129.63 253.294 129.706 253.251 129.783 253.264L157.059 257.766C157.167 257.784 157.229 257.899 157.185 257.999Z" stroke="black" stroke-opacity="0.1" stroke-width="0.33516"/>
</g>
<g filter="url(#filter5_d_527_4202)">
<path d="M83.2522 329.261C83.2268 328.918 83.6748 328.764 83.8656 329.051L99.1753 352.102C99.2072 352.15 99.2262 352.206 99.2304 352.263L100.181 365.155C100.206 365.506 99.7421 365.654 99.5596 365.353L84.0621 339.754C84.0347 339.709 84.0184 339.658 84.0145 339.605L83.2522 329.261Z" fill="#D9D9D9"/>
<path d="M83.2522 329.261C83.2268 328.918 83.6748 328.764 83.8656 329.051L99.1753 352.102C99.2072 352.15 99.2262 352.206 99.2304 352.263L100.181 365.155C100.206 365.506 99.7421 365.654 99.5596 365.353L84.0621 339.754C84.0347 339.709 84.0184 339.658 84.0145 339.605L83.2522 329.261Z" fill="url(#paint15_linear_527_4202)" fill-opacity="0.55"/>
<path d="M83.726 329.144L99.0357 352.195C99.0517 352.219 99.0612 352.247 99.0633 352.275L100.013 365.167C100.026 365.343 99.7942 365.417 99.7029 365.266L84.2054 339.667C84.1917 339.644 84.1836 339.619 84.1817 339.593L83.4193 329.249C83.4066 329.077 83.6306 329 83.726 329.144Z" stroke="black" stroke-opacity="0.1" stroke-width="0.33516"/>
<path d="M99.2544 352.59C99.2436 352.443 99.33 352.306 99.4673 352.253L128.708 340.893C128.918 340.812 129.147 340.956 129.164 341.181L130.024 352.856C130.035 353 129.952 353.134 129.819 353.19L100.638 365.366C100.427 365.455 100.192 365.31 100.175 365.082L99.2544 352.59Z" fill="#D9D9D9"/>
<path d="M99.2544 352.59C99.2436 352.443 99.33 352.306 99.4673 352.253L128.708 340.893C128.918 340.812 129.147 340.956 129.164 341.181L130.024 352.856C130.035 353 129.952 353.134 129.819 353.19L100.638 365.366C100.427 365.455 100.192 365.31 100.175 365.082L99.2544 352.59Z" fill="url(#paint16_linear_527_4202)" fill-opacity="0.55"/>
<path d="M99.528 352.409L128.769 341.05C128.874 341.009 128.988 341.081 128.997 341.193L129.857 352.868C129.863 352.94 129.821 353.007 129.755 353.035L100.574 365.212C100.468 365.256 100.351 365.184 100.342 365.069L99.4215 352.577C99.4161 352.504 99.4593 352.436 99.528 352.409Z" stroke="black" stroke-opacity="0.1" stroke-width="0.33516"/>
<path d="M83.7875 329.086C83.6664 328.903 83.75 328.656 83.9568 328.584L110.693 319.295C110.823 319.249 110.969 319.289 111.058 319.395L128.827 340.37C128.975 340.546 128.907 340.816 128.692 340.899L99.4755 352.246C99.3287 352.303 99.162 352.25 99.0749 352.119L83.7875 329.086Z" fill="url(#paint17_linear_527_4202)" fill-opacity="0.55"/>
<path d="M84.0118 328.742L110.748 319.453C110.813 319.43 110.886 319.45 110.93 319.503L128.699 340.479C128.773 340.567 128.739 340.702 128.631 340.743L99.4148 352.089C99.3414 352.118 99.2581 352.092 99.2146 352.026L83.9272 328.993C83.8666 328.902 83.9084 328.778 84.0118 328.742Z" stroke="black" stroke-opacity="0.1" stroke-width="0.33516"/>
</g>
<g filter="url(#filter6_d_527_4202)">
<path d="M190.895 349.958C191.156 349.733 191.546 350.001 191.429 350.325L182.027 376.351C182.007 376.405 181.974 376.454 181.931 376.491L172.14 384.931C171.873 385.161 171.477 384.877 171.611 384.55L182.948 356.856C182.968 356.808 182.999 356.764 183.039 356.73L190.895 349.958Z" fill="#D9D9D9"/>
<path d="M190.895 349.958C191.156 349.733 191.546 350.001 191.429 350.325L182.027 376.351C182.007 376.405 181.974 376.454 181.931 376.491L172.14 384.931C171.873 385.161 171.477 384.877 171.611 384.55L182.948 356.856C182.968 356.808 182.999 356.764 183.039 356.73L190.895 349.958Z" fill="url(#paint18_linear_527_4202)" fill-opacity="0.5"/>
<path d="M191.271 350.268L181.869 376.294C181.86 376.321 181.843 376.345 181.821 376.364L172.03 384.804C171.897 384.919 171.699 384.777 171.766 384.614L183.103 356.92C183.113 356.895 183.128 356.874 183.148 356.856L191.004 350.085C191.135 349.972 191.33 350.106 191.271 350.268Z" stroke="black" stroke-opacity="0.1" stroke-width="0.33516"/>
<path d="M181.683 376.705C181.794 376.609 181.956 376.597 182.08 376.676L208.619 393.403C208.809 393.523 208.829 393.793 208.659 393.94L199.792 401.583C199.683 401.677 199.526 401.691 199.402 401.617L172.243 385.426C172.046 385.308 172.022 385.033 172.195 384.884L181.683 376.705Z" fill="#D9D9D9"/>
<path d="M181.683 376.705C181.794 376.609 181.956 376.597 182.08 376.676L208.619 393.403C208.809 393.523 208.829 393.793 208.659 393.94L199.792 401.583C199.683 401.677 199.526 401.691 199.402 401.617L172.243 385.426C172.046 385.308 172.022 385.033 172.195 384.884L181.683 376.705Z" fill="url(#paint19_linear_527_4202)" fill-opacity="0.5"/>
<path d="M181.991 376.817L208.529 393.544C208.625 393.604 208.635 393.739 208.549 393.813L199.683 401.456C199.628 401.503 199.549 401.51 199.487 401.473L172.328 385.282C172.23 385.223 172.218 385.085 172.305 385.011L181.792 376.832C181.848 376.784 181.929 376.778 181.991 376.817Z" stroke="black" stroke-opacity="0.1" stroke-width="0.33516"/>
<path d="M191.355 350.284C191.43 350.078 191.678 349.997 191.859 350.121L215.242 366.068C215.357 366.146 215.411 366.286 215.38 366.421L209.109 393.186C209.057 393.41 208.799 393.516 208.604 393.393L182.091 376.678C181.958 376.594 181.901 376.429 181.955 376.281L191.355 350.284Z" fill="url(#paint20_linear_527_4202)" fill-opacity="0.5"/>
<path d="M191.765 350.259L215.148 366.206C215.205 366.245 215.232 366.316 215.217 366.383L208.946 393.148C208.92 393.26 208.791 393.313 208.694 393.252L182.18 376.536C182.114 376.494 182.085 376.412 182.112 376.338L191.513 350.341C191.55 350.238 191.674 350.197 191.765 350.259Z" stroke="black" stroke-opacity="0.1" stroke-width="0.33516"/>
</g>
<g filter="url(#filter7_d_527_4202)">
<path d="M125.834 70.9271C125.862 70.5834 126.329 70.5015 126.472 70.815L138.013 95.9654C138.037 96.0177 138.047 96.0754 138.042 96.1328L136.977 109.015C136.948 109.367 136.466 109.441 136.333 109.115L125.003 81.4179C124.983 81.369 124.975 81.3161 124.979 81.2634L125.834 70.9271Z" fill="#D9D9D9"/>
<path d="M125.834 70.9271C125.862 70.5834 126.329 70.5015 126.472 70.815L138.013 95.9654C138.037 96.0177 138.047 96.0754 138.042 96.1328L136.977 109.015C136.948 109.367 136.466 109.441 136.333 109.115L125.003 81.4179C124.983 81.369 124.975 81.3161 124.979 81.2634L125.834 70.9271Z" fill="url(#paint21_linear_527_4202)" fill-opacity="0.5"/>
<path d="M126.32 70.8848L137.861 96.0353C137.873 96.0614 137.878 96.0903 137.875 96.119L136.81 109.002C136.796 109.177 136.555 109.214 136.488 109.051L125.158 81.3545C125.148 81.33 125.144 81.3035 125.146 81.2772L126.001 70.9409C126.015 70.7691 126.248 70.7281 126.32 70.8848Z" stroke="black" stroke-opacity="0.1" stroke-width="0.33516"/>
<path d="M138.016 96.4593C138.028 96.3125 138.134 96.1908 138.278 96.1595L168.93 89.4834C169.15 89.4355 169.354 89.614 169.335 89.8385L168.37 101.505C168.358 101.649 168.256 101.769 168.116 101.803L137.397 109.296C137.175 109.35 136.965 109.171 136.983 108.943L138.016 96.4593Z" fill="#D9D9D9"/>
<path d="M138.016 96.4593C138.028 96.3125 138.134 96.1908 138.278 96.1595L168.93 89.4834C169.15 89.4355 169.354 89.614 169.335 89.8385L168.37 101.505C168.358 101.649 168.256 101.769 168.116 101.803L137.397 109.296C137.175 109.35 136.965 109.171 136.983 108.943L138.016 96.4593Z" fill="url(#paint22_linear_527_4202)" fill-opacity="0.5"/>
<path d="M138.314 96.3232L168.965 89.6472C169.075 89.6232 169.177 89.7124 169.168 89.8247L168.203 101.491C168.197 101.563 168.146 101.623 168.076 101.64L137.357 109.133C137.246 109.16 137.141 109.07 137.15 108.956L138.183 96.4731C138.189 96.3997 138.242 96.3389 138.314 96.3232Z" stroke="black" stroke-opacity="0.1" stroke-width="0.33516"/>
<path d="M126.39 70.8367C126.299 70.6377 126.42 70.4061 126.635 70.3672L154.49 65.3472C154.626 65.3226 154.764 65.3844 154.836 65.5028L169.127 88.9853C169.247 89.182 169.137 89.4381 168.912 89.487L138.287 96.1539C138.133 96.1874 137.977 96.1092 137.911 95.9661L126.39 70.8367Z" fill="url(#paint23_linear_527_4202)" fill-opacity="0.5"/>
<path d="M126.665 70.5321L154.52 65.5121C154.588 65.4998 154.656 65.5307 154.692 65.5899L168.984 89.0724C169.044 89.1708 168.989 89.2988 168.877 89.3233L138.252 95.9901C138.175 96.0069 138.096 95.9678 138.064 95.8962L126.542 70.7669C126.497 70.6674 126.557 70.5516 126.665 70.5321Z" stroke="black" stroke-opacity="0.1" stroke-width="0.33516"/>
</g>
<g filter="url(#filter8_d_527_4202)">
<path d="M145.541 393.819C145.841 393.989 145.719 394.447 145.374 394.446L117.702 394.337C117.645 394.336 117.588 394.321 117.538 394.293L106.299 387.908C105.992 387.734 106.128 387.265 106.48 387.281L136.373 388.653C136.426 388.655 136.477 388.67 136.523 388.696L145.541 393.819Z" fill="#D9D9D9"/>
<path d="M145.541 393.819C145.841 393.989 145.719 394.447 145.374 394.446L117.702 394.337C117.645 394.336 117.588 394.321 117.538 394.293L106.299 387.908C105.992 387.734 106.128 387.265 106.48 387.281L136.373 388.653C136.426 388.655 136.477 388.67 136.523 388.696L145.541 393.819Z" fill="url(#paint24_linear_527_4202)" fill-opacity="0.5"/>
<path d="M145.375 394.278L117.703 394.169C117.674 394.169 117.646 394.161 117.621 394.147L106.381 387.762C106.228 387.675 106.296 387.441 106.472 387.449L136.365 388.82C136.391 388.821 136.417 388.829 136.44 388.842L145.458 393.965C145.608 394.05 145.547 394.279 145.375 394.278Z" stroke="black" stroke-opacity="0.1" stroke-width="0.33516"/>
<path d="M117.253 394.131C117.381 394.204 117.447 394.352 117.415 394.496L110.579 425.112C110.53 425.332 110.282 425.441 110.086 425.33L99.9076 419.548C99.7821 419.476 99.7164 419.333 99.7443 419.191L105.868 388.17C105.912 387.946 106.163 387.831 106.362 387.944L117.253 394.131Z" fill="#D9D9D9"/>
<path d="M117.253 394.131C117.381 394.204 117.447 394.352 117.415 394.496L110.579 425.112C110.53 425.332 110.282 425.441 110.086 425.33L99.9076 419.548C99.7821 419.476 99.7164 419.333 99.7443 419.191L105.868 388.17C105.912 387.946 106.163 387.831 106.362 387.944L117.253 394.131Z" fill="url(#paint25_linear_527_4202)" fill-opacity="0.5"/>
<path d="M117.251 394.459L110.415 425.075C110.391 425.185 110.267 425.24 110.169 425.184L99.9904 419.402C99.9276 419.366 99.8948 419.295 99.9087 419.224L106.032 388.203C106.054 388.091 106.18 388.033 106.279 388.09L117.17 394.277C117.234 394.313 117.267 394.387 117.251 394.459Z" stroke="black" stroke-opacity="0.1" stroke-width="0.33516"/>
<path d="M145.389 394.362C145.608 394.363 145.767 394.57 145.712 394.782L138.55 422.164C138.515 422.298 138.401 422.397 138.263 422.412L110.947 425.501C110.719 425.527 110.532 425.319 110.583 425.095L117.416 394.506C117.45 394.353 117.587 394.244 117.745 394.244L145.389 394.362Z" fill="url(#paint26_linear_527_4202)" fill-opacity="0.5"/>
<path d="M145.55 394.739L138.387 422.122C138.37 422.189 138.313 422.238 138.244 422.246L110.928 425.334C110.814 425.347 110.721 425.244 110.746 425.131L117.58 394.543C117.597 394.466 117.665 394.411 117.744 394.412L145.388 394.529C145.498 394.53 145.577 394.633 145.55 394.739Z" stroke="black" stroke-opacity="0.1" stroke-width="0.33516"/>
</g>
<g filter="url(#filter9_d_527_4202)">
<path d="M186.021 222.862C185.678 222.893 185.518 222.447 185.802 222.252L208.624 206.603C208.672 206.571 208.727 206.551 208.784 206.546L221.661 205.405C222.012 205.374 222.167 205.836 221.868 206.023L196.501 221.897C196.456 221.925 196.405 221.942 196.353 221.947L186.021 222.862Z" fill="#D9D9D9"/>
<path d="M186.021 222.862C185.678 222.893 185.518 222.447 185.802 222.252L208.624 206.603C208.672 206.571 208.727 206.551 208.784 206.546L221.661 205.405C222.012 205.374 222.167 205.836 221.868 206.023L196.501 221.897C196.456 221.925 196.405 221.942 196.353 221.947L186.021 222.862Z" fill="url(#paint27_linear_527_4202)" fill-opacity="0.5"/>
<path d="M185.897 222.39L208.719 206.741C208.743 206.725 208.77 206.715 208.799 206.713L221.675 205.572C221.851 205.557 221.928 205.788 221.779 205.881L196.412 221.755C196.39 221.769 196.364 221.778 196.338 221.78L186.007 222.695C185.835 222.71 185.755 222.488 185.897 222.39Z" stroke="black" stroke-opacity="0.1" stroke-width="0.33516"/>
<path d="M209.111 206.517C208.964 206.53 208.826 206.446 208.771 206.309L196.98 177.24C196.896 177.031 197.037 176.8 197.261 176.78L208.922 175.747C209.066 175.734 209.201 175.815 209.259 175.947L221.866 204.945C221.957 205.154 221.816 205.392 221.588 205.412L209.111 206.517Z" fill="#D9D9D9"/>
<path d="M209.111 206.517C208.964 206.53 208.826 206.446 208.771 206.309L196.98 177.24C196.896 177.031 197.037 176.8 197.261 176.78L208.922 175.747C209.066 175.734 209.201 175.815 209.259 175.947L221.866 204.945C221.957 205.154 221.816 205.392 221.588 205.412L209.111 206.517Z" fill="url(#paint28_linear_527_4202)" fill-opacity="0.5"/>
<path d="M208.926 206.246L197.136 177.177C197.093 177.072 197.164 176.957 197.276 176.947L208.937 175.914C209.009 175.907 209.076 175.948 209.105 176.014L221.712 205.011C221.757 205.116 221.687 205.235 221.573 205.245L209.096 206.35C209.023 206.357 208.954 206.315 208.926 206.246Z" stroke="black" stroke-opacity="0.1" stroke-width="0.33516"/>
<path d="M185.838 222.33C185.657 222.454 185.408 222.374 185.333 222.168L175.65 195.573C175.603 195.442 175.641 195.296 175.745 195.205L196.456 177.129C196.629 176.978 196.9 177.042 196.987 177.256L208.763 206.301C208.822 206.447 208.772 206.615 208.642 206.704L185.838 222.33Z" fill="url(#paint29_linear_527_4202)" fill-opacity="0.5"/>
<path d="M185.491 222.111L175.808 195.515C175.784 195.45 175.803 195.377 175.855 195.332L196.566 177.255C196.652 177.18 196.788 177.212 196.831 177.319L208.608 206.364C208.638 206.437 208.612 206.521 208.547 206.566L185.743 222.192C185.653 222.254 185.528 222.214 185.491 222.111Z" stroke="black" stroke-opacity="0.1" stroke-width="0.33516"/>
</g>
<g filter="url(#filter10_d_527_4202)">
<path d="M56.7182 398.268C56.8113 398.6 56.4028 398.84 56.1587 398.596L36.5729 379.048C36.5321 379.008 36.5025 378.957 36.4869 378.902L32.9934 366.456C32.8982 366.117 33.3238 365.879 33.5626 366.138L53.839 388.146C53.8748 388.185 53.9009 388.232 53.9152 388.283L56.7182 398.268Z" fill="#D9D9D9"/>
<path d="M56.7182 398.268C56.8113 398.6 56.4028 398.84 56.1587 398.596L36.5729 379.048C36.5321 379.008 36.5025 378.957 36.4869 378.902L32.9934 366.456C32.8982 366.117 33.3238 365.879 33.5626 366.138L53.839 388.146C53.8748 388.185 53.9009 388.232 53.9152 388.283L56.7182 398.268Z" fill="url(#paint30_linear_527_4202)" fill-opacity="0.5"/>
<path d="M56.2771 398.478L36.6913 378.93C36.6709 378.909 36.6561 378.884 36.6483 378.856L33.1547 366.411C33.1071 366.241 33.32 366.122 33.4393 366.252L53.7157 388.26C53.7336 388.279 53.7467 388.303 53.7538 388.328L56.5568 398.314C56.6034 398.48 56.3991 398.599 56.2771 398.478Z" stroke="black" stroke-opacity="0.1" stroke-width="0.33516"/>
<path d="M36.3987 378.586C36.4385 378.728 36.381 378.879 36.2571 378.959L9.85726 395.903C9.66767 396.025 9.41442 395.929 9.35353 395.712L6.18981 384.441C6.15082 384.302 6.20508 384.154 6.32452 384.073L32.5028 366.339C32.6922 366.211 32.9517 366.306 33.0135 366.526L36.3987 378.586Z" fill="#D9D9D9"/>
<path d="M36.3987 378.586C36.4385 378.728 36.381 378.879 36.2571 378.959L9.85726 395.903C9.66767 396.025 9.41442 395.929 9.35353 395.712L6.18981 384.441C6.15082 384.302 6.20508 384.154 6.32452 384.073L32.5028 366.339C32.6922 366.211 32.9517 366.306 33.0135 366.526L36.3987 378.586Z" fill="url(#paint31_linear_527_4202)" fill-opacity="0.5"/>
<path d="M36.1665 378.818L9.76674 395.762C9.67195 395.823 9.54532 395.775 9.51488 395.667L6.35115 384.396C6.33166 384.326 6.35879 384.252 6.41851 384.212L32.5968 366.478C32.6915 366.414 32.8212 366.461 32.8521 366.572L36.2374 378.631C36.2573 378.702 36.2285 378.778 36.1665 378.818Z" stroke="black" stroke-opacity="0.1" stroke-width="0.33516"/>
<path d="M56.2283 398.547C56.3832 398.702 56.3506 398.961 56.1622 399.073L31.8061 413.49C31.6869 413.561 31.5365 413.551 31.4278 413.465L9.84497 396.439C9.66418 396.297 9.67774 396.019 9.87154 395.894L36.25 378.967C36.3826 378.882 36.5564 378.901 36.6679 379.012L56.2283 398.547Z" fill="url(#paint32_linear_527_4202)" fill-opacity="0.5"/>
<path d="M56.0768 398.928L31.7207 413.346C31.6611 413.381 31.5859 413.376 31.5316 413.333L9.94876 396.308C9.85836 396.237 9.86515 396.097 9.96205 396.035L36.3405 379.108C36.4068 379.066 36.4937 379.075 36.5495 379.131L56.1099 398.666C56.1873 398.743 56.171 398.873 56.0768 398.928Z" stroke="black" stroke-opacity="0.1" stroke-width="0.33516"/>
</g>
</g>
<defs>
<filter id="filter0_d_527_4202" x="12.7364" y="55" width="70.2429" height="71.9177" filterUnits="userSpaceOnUse" color-interpolation-filters="sRGB">
<feFlood flood-opacity="0" result="BackgroundImageFix"/>
<feColorMatrix in="SourceAlpha" type="matrix" values="0 0 0 0 0 0 0 0 0 0 0 0 0 0 0 0 0 0 127 0" result="hardAlpha"/>
<feOffset dy="6.0155"/>
<feGaussianBlur stdDeviation="2.63178"/>
<feComposite in2="hardAlpha" operator="out"/>
<feColorMatrix type="matrix" values="0 0 0 0 0 0 0 0 0 0 0 0 0 0 0 0 0 0 0.15 0"/>
<feBlend mode="normal" in2="BackgroundImageFix" result="effect1_dropShadow_527_4202"/>
<feBlend mode="normal" in="SourceGraphic" in2="effect1_dropShadow_527_4202" result="shape"/>
</filter>
<filter id="filter1_d_527_4202" x="171.737" y="95" width="66.5867" height="68.5729" filterUnits="userSpaceOnUse" color-interpolation-filters="sRGB">
<feFlood flood-opacity="0" result="BackgroundImageFix"/>
<feColorMatrix in="SourceAlpha" type="matrix" values="0 0 0 0 0 0 0 0 0 0 0 0 0 0 0 0 0 0 127 0" result="hardAlpha"/>
<feOffset dy="6.0155"/>
<feGaussianBlur stdDeviation="2.63178"/>
<feComposite in2="hardAlpha" operator="out"/>
<feColorMatrix type="matrix" values="0 0 0 0 0 0 0 0 0 0 0 0 0 0 0 0 0 0 0.15 0"/>
<feBlend mode="normal" in2="BackgroundImageFix" result="effect1_dropShadow_527_4202"/>
<feBlend mode="normal" in="SourceGraphic" in2="effect1_dropShadow_527_4202" result="shape"/>
</filter>
<filter id="filter2_d_527_4202" x="182.395" y="16.8243" width="69.3623" height="69.0097" filterUnits="userSpaceOnUse" color-interpolation-filters="sRGB">
<feFlood flood-opacity="0" result="BackgroundImageFix"/>
<feColorMatrix in="SourceAlpha" type="matrix" values="0 0 0 0 0 0 0 0 0 0 0 0 0 0 0 0 0 0 127 0" result="hardAlpha"/>
<feOffset dy="6.0155"/>
<feGaussianBlur stdDeviation="2.63178"/>
<feComposite in2="hardAlpha" operator="out"/>
<feColorMatrix type="matrix" values="0 0 0 0 0 0 0 0 0 0 0 0 0 0 0 0 0 0 0.15 0"/>
<feBlend mode="normal" in2="BackgroundImageFix" result="effect1_dropShadow_527_4202"/>
<feBlend mode="normal" in="SourceGraphic" in2="effect1_dropShadow_527_4202" result="shape"/>
</filter>
<filter id="filter3_d_527_4202" x="84.7362" y="0" width="60.9922" height="63.3203" filterUnits="userSpaceOnUse" color-interpolation-filters="sRGB">
<feFlood flood-opacity="0" result="BackgroundImageFix"/>
<feColorMatrix in="SourceAlpha" type="matrix" values="0 0 0 0 0 0 0 0 0 0 0 0 0 0 0 0 0 0 127 0" result="hardAlpha"/>
<feOffset dy="6.0155"/>
<feGaussianBlur stdDeviation="2.63178"/>
<feComposite in2="hardAlpha" operator="out"/>
<feColorMatrix type="matrix" values="0 0 0 0 0 0 0 0 0 0 0 0 0 0 0 0 0 0 0.15 0"/>
<feBlend mode="normal" in2="BackgroundImageFix" result="effect1_dropShadow_527_4202"/>
<feBlend mode="normal" in="SourceGraphic" in2="effect1_dropShadow_527_4202" result="shape"/>
</filter>
<filter id="filter4_d_527_4202" x="93.9737" y="233.301" width="74.6287" height="75.096" filterUnits="userSpaceOnUse" color-interpolation-filters="sRGB">
<feFlood flood-opacity="0" result="BackgroundImageFix"/>
<feColorMatrix in="SourceAlpha" type="matrix" values="0 0 0 0 0 0 0 0 0 0 0 0 0 0 0 0 0 0 127 0" result="hardAlpha"/>
<feOffset dy="6.0155"/>
<feGaussianBlur stdDeviation="2.63178"/>
<feComposite in2="hardAlpha" operator="out"/>
<feColorMatrix type="matrix" values="0 0 0 0 0 0 0 0 0 0 0 0 0 0 0 0 0 0 0.15 0"/>
<feBlend mode="normal" in2="BackgroundImageFix" result="effect1_dropShadow_527_4202"/>
<feBlend mode="normal" in="SourceGraphic" in2="effect1_dropShadow_527_4202" result="shape"/>
</filter>
<filter id="filter5_d_527_4202" x="77.7364" y="318" width="58.3948" height="60.8497" filterUnits="userSpaceOnUse" color-interpolation-filters="sRGB">
<feFlood flood-opacity="0" result="BackgroundImageFix"/>
<feColorMatrix in="SourceAlpha" type="matrix" values="0 0 0 0 0 0 0 0 0 0 0 0 0 0 0 0 0 0 127 0" result="hardAlpha"/>
<feOffset dy="6.0155"/>
<feGaussianBlur stdDeviation="2.63178"/>
<feComposite in2="hardAlpha" operator="out"/>
<feColorMatrix type="matrix" values="0 0 0 0 0 0 0 0 0 0 0 0 0 0 0 0 0 0 0.15 0"/>
<feBlend mode="normal" in2="BackgroundImageFix" result="effect1_dropShadow_527_4202"/>
<feBlend mode="normal" in="SourceGraphic" in2="effect1_dropShadow_527_4202" result="shape"/>
</filter>
<filter id="filter6_d_527_4202" x="156.736" y="345" width="74.7915" height="75.3507" filterUnits="userSpaceOnUse" color-interpolation-filters="sRGB">
<feFlood flood-opacity="0" result="BackgroundImageFix"/>
<feColorMatrix in="SourceAlpha" type="matrix" values="0 0 0 0 0 0 0 0 0 0 0 0 0 0 0 0 0 0 127 0" result="hardAlpha"/>
<feOffset dy="6.0155"/>
<feGaussianBlur stdDeviation="2.63178"/>
<feComposite in2="hardAlpha" operator="out"/>
<feColorMatrix type="matrix" values="0 0 0 0 0 0 0 0 0 0 0 0 0 0 0 0 0 0 0.15 0"/>
<feBlend mode="normal" in2="BackgroundImageFix" result="effect1_dropShadow_527_4202"/>
<feBlend mode="normal" in="SourceGraphic" in2="effect1_dropShadow_527_4202" result="shape"/>
</filter>
<filter id="filter7_d_527_4202" x="117.737" y="63" width="58.7774" height="61.2145" filterUnits="userSpaceOnUse" color-interpolation-filters="sRGB">
<feFlood flood-opacity="0" result="BackgroundImageFix"/>
<feColorMatrix in="SourceAlpha" type="matrix" values="0 0 0 0 0 0 0 0 0 0 0 0 0 0 0 0 0 0 127 0" result="hardAlpha"/>
<feOffset dy="6.0155"/>
<feGaussianBlur stdDeviation="2.63178"/>
<feComposite in2="hardAlpha" operator="out"/>
<feColorMatrix type="matrix" values="0 0 0 0 0 0 0 0 0 0 0 0 0 0 0 0 0 0 0.15 0"/>
<feBlend mode="normal" in2="BackgroundImageFix" result="effect1_dropShadow_527_4202"/>
<feBlend mode="normal" in="SourceGraphic" in2="effect1_dropShadow_527_4202" result="shape"/>
</filter>
<filter id="filter8_d_527_4202" x="84.6717" y="375.124" width="72.9072" height="72.9671" filterUnits="userSpaceOnUse" color-interpolation-filters="sRGB">
<feFlood flood-opacity="0" result="BackgroundImageFix"/>
<feColorMatrix in="SourceAlpha" type="matrix" values="0 0 0 0 0 0 0 0 0 0 0 0 0 0 0 0 0 0 127 0" result="hardAlpha"/>
<feOffset dy="6.0155"/>
<feGaussianBlur stdDeviation="2.63178"/>
<feComposite in2="hardAlpha" operator="out"/>
<feColorMatrix type="matrix" values="0 0 0 0 0 0 0 0 0 0 0 0 0 0 0 0 0 0 0.15 0"/>
<feBlend mode="normal" in2="BackgroundImageFix" result="effect1_dropShadow_527_4202"/>
<feBlend mode="normal" in="SourceGraphic" in2="effect1_dropShadow_527_4202" result="shape"/>
</filter>
<filter id="filter9_d_527_4202" x="168.844" y="174.735" width="60.699" height="59.7774" filterUnits="userSpaceOnUse" color-interpolation-filters="sRGB">
<feFlood flood-opacity="0" result="BackgroundImageFix"/>
<feColorMatrix in="SourceAlpha" type="matrix" values="0 0 0 0 0 0 0 0 0 0 0 0 0 0 0 0 0 0 127 0" result="hardAlpha"/>
<feOffset dy="6.0155"/>
<feGaussianBlur stdDeviation="2.63178"/>
<feComposite in2="hardAlpha" operator="out"/>
<feColorMatrix type="matrix" values="0 0 0 0 0 0 0 0 0 0 0 0 0 0 0 0 0 0 0.15 0"/>
<feBlend mode="normal" in2="BackgroundImageFix" result="effect1_dropShadow_527_4202"/>
<feBlend mode="normal" in="SourceGraphic" in2="effect1_dropShadow_527_4202" result="shape"/>
</filter>
<filter id="filter10_d_527_4202" x="-2.17372" y="361.352" width="65.99" height="68.0185" filterUnits="userSpaceOnUse" color-interpolation-filters="sRGB">
<feFlood flood-opacity="0" result="BackgroundImageFix"/>
<feColorMatrix in="SourceAlpha" type="matrix" values="0 0 0 0 0 0 0 0 0 0 0 0 0 0 0 0 0 0 127 0" result="hardAlpha"/>
<feOffset dy="6.0155"/>
<feGaussianBlur stdDeviation="2.63178"/>
<feComposite in2="hardAlpha" operator="out"/>
<feColorMatrix type="matrix" values="0 0 0 0 0 0 0 0 0 0 0 0 0 0 0 0 0 0 0.15 0"/>
<feBlend mode="normal" in2="BackgroundImageFix" result="effect1_dropShadow_527_4202"/>
<feBlend mode="normal" in="SourceGraphic" in2="effect1_dropShadow_527_4202" result="shape"/>
</filter>
<linearGradient id="paint0_linear_527_4202" x1="26.9423" y1="76.6423" x2="43.2657" y2="112.849" gradientUnits="userSpaceOnUse">
<stop stop-color="#FFF400"/>
<stop offset="1" stop-color="#B0B0B0"/>
<stop offset="1" stop-color="#FF7400"/>
</linearGradient>
<linearGradient id="paint1_linear_527_4202" x1="54.0255" y1="82.0791" x2="63.3237" y2="102.703" gradientUnits="userSpaceOnUse">
<stop stop-color="#FFF400"/>
<stop offset="1" stop-color="#B0B0B0"/>
<stop offset="1" stop-color="#FF7400"/>
</linearGradient>
<linearGradient id="paint2_linear_527_4202" x1="38.3187" y1="64.1606" x2="51.5427" y2="93.4928" gradientUnits="userSpaceOnUse">
<stop stop-color="#FFF400"/>
<stop offset="1" stop-color="#B0B0B0"/>
<stop offset="1" stop-color="#FF7400"/>
</linearGradient>
<linearGradient id="paint3_linear_527_4202" x1="194.942" y1="103.374" x2="183.5" y2="141.407" gradientUnits="userSpaceOnUse">
<stop stop-color="#CBCBCB"/>
<stop offset="1" stop-color="#86867E" stop-opacity="0.62"/>
</linearGradient>
<linearGradient id="paint4_linear_527_4202" x1="211.811" y1="125.249" x2="205.293" y2="146.913" gradientUnits="userSpaceOnUse">
<stop stop-color="#CBCBCB"/>
<stop offset="1" stop-color="#86867E" stop-opacity="0.62"/>
</linearGradient>
<linearGradient id="paint5_linear_527_4202" x1="211.717" y1="101.421" x2="202.447" y2="132.232" gradientUnits="userSpaceOnUse">
<stop stop-color="#CBCBCB"/>
<stop offset="1" stop-color="#86867E" stop-opacity="0.62"/>
</linearGradient>
<linearGradient id="paint6_linear_527_4202" x1="227.309" y1="25.4896" x2="189.972" y2="39.0289" gradientUnits="userSpaceOnUse">
<stop stop-color="#FFF400"/>
<stop offset="1" stop-color="#FF7400"/>
</linearGradient>
<linearGradient id="paint7_linear_527_4202" x1="219.84" y1="52.085" x2="198.572" y2="59.7973" gradientUnits="userSpaceOnUse">
<stop stop-color="#FFF400"/>
<stop offset="1" stop-color="#FF7400"/>
</linearGradient>
<linearGradient id="paint8_linear_527_4202" x1="238.895" y1="37.7777" x2="208.647" y2="48.7462" gradientUnits="userSpaceOnUse">
<stop stop-color="#FFF400"/>
<stop offset="1" stop-color="#FF7400"/>
</linearGradient>
<linearGradient id="paint9_linear_527_4202" x1="102.115" y1="7.56252" x2="96.7238" y2="46.9114" gradientUnits="userSpaceOnUse">
<stop stop-color="#FF7400"/>
<stop offset="1" stop-color="white"/>
</linearGradient>
<linearGradient id="paint10_linear_527_4202" x1="122.18" y1="26.5497" x2="119.109" y2="48.9636" gradientUnits="userSpaceOnUse">
<stop stop-color="#FF7400"/>
<stop offset="1" stop-color="white"/>
</linearGradient>
<linearGradient id="paint11_linear_527_4202" x1="118.383" y1="3.0256" x2="114.016" y2="34.9031" gradientUnits="userSpaceOnUse">
<stop stop-color="#FF7400"/>
<stop offset="1" stop-color="white"/>
</linearGradient>
<linearGradient id="paint12_linear_527_4202" x1="153.863" y1="263.445" x2="122.881" y2="238.596" gradientUnits="userSpaceOnUse">
<stop stop-color="#FFF400"/>
<stop offset="1" stop-color="#FF7400"/>
</linearGradient>
<linearGradient id="paint13_linear_527_4202" x1="127.264" y1="270.897" x2="109.616" y2="256.742" gradientUnits="userSpaceOnUse">
<stop stop-color="#FFF400"/>
<stop offset="1" stop-color="#FF7400"/>
</linearGradient>
<linearGradient id="paint14_linear_527_4202" x1="149.394" y1="279.731" x2="124.294" y2="259.6" gradientUnits="userSpaceOnUse">
<stop stop-color="#FFF400"/>
<stop offset="1" stop-color="#FF7400"/>
</linearGradient>
<linearGradient id="paint15_linear_527_4202" x1="90.2611" y1="327.463" x2="93.1804" y2="367.072" gradientUnits="userSpaceOnUse">
<stop stop-color="#FFF400"/>
<stop offset="0.34375" stop-color="#FF8600"/>
<stop offset="0.822917" stop-color="#FF7400"/>
</linearGradient>
<linearGradient id="paint16_linear_527_4202" x1="113.838" y1="341.856" x2="115.501" y2="364.418" gradientUnits="userSpaceOnUse">
<stop stop-color="#FFF400"/>
<stop offset="0.34375" stop-color="#FF8600"/>
<stop offset="0.822917" stop-color="#FF7400"/>
</linearGradient>
<linearGradient id="paint17_linear_527_4202" x1="105.227" y1="319.638" x2="107.592" y2="351.727" gradientUnits="userSpaceOnUse">
<stop stop-color="#FFF400"/>
<stop offset="0.34375" stop-color="#FF8600"/>
<stop offset="0.822917" stop-color="#FF7400"/>
</linearGradient>
<linearGradient id="paint18_linear_527_4202" x1="196.513" y1="354.517" x2="166.431" y2="380.449" gradientUnits="userSpaceOnUse">
<stop stop-color="#FFF400"/>
<stop offset="1" stop-color="#949494" stop-opacity="0.72"/>
</linearGradient>
<linearGradient id="paint19_linear_527_4202" x1="198.99" y1="382.03" x2="181.855" y2="396.801" gradientUnits="userSpaceOnUse">
<stop stop-color="#FFF400"/>
<stop offset="1" stop-color="#949494" stop-opacity="0.72"/>
</linearGradient>
<linearGradient id="paint20_linear_527_4202" x1="211.712" y1="361.882" x2="187.342" y2="382.89" gradientUnits="userSpaceOnUse">
<stop stop-color="#FFF400"/>
<stop offset="1" stop-color="#949494" stop-opacity="0.72"/>
</linearGradient>
<linearGradient id="paint21_linear_527_4202" x1="133.037" y1="70.2398" x2="129.764" y2="109.821" gradientUnits="userSpaceOnUse">
<stop stop-color="#FF1F00"/>
<stop offset="1" stop-color="#C2C2C2" stop-opacity="0"/>
</linearGradient>
<linearGradient id="paint22_linear_527_4202" x1="154.091" y1="88.1233" x2="152.227" y2="110.67" gradientUnits="userSpaceOnUse">
<stop stop-color="#FF1F00"/>
<stop offset="1" stop-color="#C2C2C2" stop-opacity="0"/>
</linearGradient>
<linearGradient id="paint23_linear_527_4202" x1="149.038" y1="64.8368" x2="146.386" y2="96.9027" gradientUnits="userSpaceOnUse">
<stop stop-color="#FF1F00"/>
<stop offset="1" stop-color="#C2C2C2" stop-opacity="0"/>
</linearGradient>
<linearGradient id="paint24_linear_527_4202" x1="143.134" y1="400.643" x2="108.602" y2="381.025" gradientUnits="userSpaceOnUse">
<stop stop-color="#F10000"/>
<stop offset="1" stop-color="#C2C2C2" stop-opacity="0"/>
<stop offset="1" stop-color="white" stop-opacity="0"/>
</linearGradient>
<linearGradient id="paint25_linear_527_4202" x1="118.054" y1="412.222" x2="98.3836" y2="401.047" gradientUnits="userSpaceOnUse">
<stop stop-color="#F10000"/>
<stop offset="1" stop-color="#C2C2C2" stop-opacity="0"/>
<stop offset="1" stop-color="white" stop-opacity="0"/>
</linearGradient>
<linearGradient id="paint26_linear_527_4202" x1="141.306" y1="417.432" x2="113.33" y2="401.539" gradientUnits="userSpaceOnUse">
<stop stop-color="#F10000"/>
<stop offset="1" stop-color="#C2C2C2" stop-opacity="0"/>
<stop offset="1" stop-color="white" stop-opacity="0"/>
</linearGradient>
<linearGradient id="paint27_linear_527_4202" x1="184.119" y1="215.881" x2="223.681" y2="212.376" gradientUnits="userSpaceOnUse">
<stop stop-color="#FFF400"/>
<stop offset="1" stop-color="#FF7400"/>
</linearGradient>
<linearGradient id="paint28_linear_527_4202" x1="198.163" y1="192.093" x2="220.698" y2="190.097" gradientUnits="userSpaceOnUse">
<stop stop-color="#FFF400"/>
<stop offset="1" stop-color="#FF7400"/>
</linearGradient>
<linearGradient id="paint29_linear_527_4202" x1="176.074" y1="201.032" x2="208.124" y2="198.193" gradientUnits="userSpaceOnUse">
<stop stop-color="#FFF400"/>
<stop offset="1" stop-color="#FF7400"/>
</linearGradient>
<linearGradient id="paint30_linear_527_4202" x1="50.2066" y1="401.424" x2="39.4729" y2="363.186" gradientUnits="userSpaceOnUse">
<stop stop-color="#FA00B4"/>
<stop offset="0.90625" stop-color="#C8B0C1" stop-opacity="0.09375"/>
<stop offset="1" stop-color="#C2C2C2" stop-opacity="0"/>
</linearGradient>
<linearGradient id="paint31_linear_527_4202" x1="24.239" y1="392.004" x2="18.1248" y2="370.223" gradientUnits="userSpaceOnUse">
<stop stop-color="#FA00B4"/>
<stop offset="0.90625" stop-color="#C8B0C1" stop-opacity="0.09375"/>
<stop offset="1" stop-color="#C2C2C2" stop-opacity="0"/>
</linearGradient>
<linearGradient id="paint32_linear_527_4202" x1="37.094" y1="412.067" x2="28.3983" y2="381.089" gradientUnits="userSpaceOnUse">
<stop stop-color="#FA00B4"/>
<stop offset="0.90625" stop-color="#C8B0C1" stop-opacity="0.09375"/>
<stop offset="1" stop-color="#C2C2C2" stop-opacity="0"/>
</linearGradient>
</defs>
</svg>
